<svg version="1.1" xmlns="http://www.w3.org/2000/svg" xmlns:xlink="http://www.w3.org/1999/xlink" viewBox="0 0 80 80" style="enable-background:new 0 0 80 80;" xml:space="preserve">
<g>
	<path style="fill:#8BB7F0;" d="M26,70.5C13.042,70.5,2.5,59.958,2.5,47S13.042,23.5,26,23.5h32.5V10.165L77.274,28L58.5,45.835V32.5H26c-7.995,0-14.5,6.505-14.5,14.5S18.005,61.5,26,61.5h13.5v9H26z"></path>
	<path style="fill:#4E7AB5;" d="M59,11.329L76.548,28L59,44.671V33v-1h-1H26c-8.271,0-15,6.729-15,15s6.729,15,15,15h13v8H26C13.318,70,3,59.682,3,47s10.318-23,23-23h32h1v-1V11.329 M58,9v14H26C12.745,23,2,33.745,2,47s10.745,24,24,24h14V61H26c-7.732,0-14-6.268-14-14s6.268-14,14-14h32v14l20-19L58,9L58,9z"></path>
</g>
</svg>