<svg version="1.1" xmlns="http://www.w3.org/2000/svg" xmlns:xlink="http://www.w3.org/1999/xlink" viewBox="0 0 80 80" style="enable-background:new 0 0 80 80;" xml:space="preserve">
    <g>
        <path style="fill:#8BB7F0;" d="M40.5,70.5v-9H54c7.995,0,14.5-6.505,14.5-14.5S61.995,32.5,54,32.5H21.5v13.335L2.726,28L21.5,10.165V23.5H54c12.958,0,23.5,10.542,23.5,23.5S66.958,70.5,54,70.5H40.5z"></path>
        <path style="fill:#4E7AB5;" d="M21,11.329V23v1h1h32c12.682,0,23,10.318,23,23c0,12.682-10.318,23-23,23H41v-8h13c8.271,0,15-6.729,15-15c0-8.271-6.729-15-15-15H22h-1v1v11.671L3.452,28L21,11.329 M22,9L2,28l20,19V33h32c7.732,0,14,6.268,14,14v0c0,7.732-6.268,14-14,14H40v10h14c13.255,0,24-10.745,24-24v0c0-13.255-10.745-24-24-24H22V9L22,9z"></path>
    </g>
</svg>