<svg version="1.1" xmlns="http://www.w3.org/2000/svg" xmlns:xlink="http://www.w3.org/1999/xlink" viewBox="0 0 80 80" style="enable-background:new 0 0 80 80;" xml:space="preserve">
    <g>
        <rect x="4.5" y="4.5" style="fill:#F2FAFF;" width="71" height="71"></rect>
        <g>
            <path style="fill:#788B9C;" d="M75,5v70H5V5H75 M76,4H4v72h72V4L76,4z"></path>
        </g>
    </g>
    <rect x="38" y="4" style="fill:#F2FAFF;" width="4" height="72"></rect>
    <rect x="20" y="4" style="fill:#F2FAFF;" width="4" height="72"></rect>
    <rect x="56" y="4" style="fill:#F2FAFF;" width="4" height="72"></rect>
    <rect x="38" y="4" transform="matrix(-1.836970e-16 1 -1 -1.836970e-16 80 7.105427e-15)" style="fill:#F2FAFF;" width="4" height="72"></rect>
    <rect x="38" y="-14" transform="matrix(-1.836970e-16 1 -1 -1.836970e-16 62 -18)" style="fill:#F2FAFF;" width="4" height="72"></rect>
    <rect x="38" y="22" transform="matrix(-1.836970e-16 1 -1 -1.836970e-16 98 18)" style="fill:#F2FAFF;" width="4" height="72"></rect>
    <rect x="20" y="24" style="fill:#4E7AB5;" width="40" height="1"></rect>
    <rect x="20" y="32" style="fill:#4E7AB5;" width="28" height="1"></rect>
    <rect x="20" y="40" style="fill:#4E7AB5;" width="40" height="1"></rect>
    <rect x="20" y="48" style="fill:#4E7AB5;" width="28" height="1"></rect>
    <rect x="20" y="56" style="fill:#4E7AB5;" width="40" height="1"></rect>
</svg>