<svg version="1.1" xmlns="http://www.w3.org/2000/svg" xmlns:xlink="http://www.w3.org/1999/xlink" viewBox="0 0 48 48" enable-background="new 0 0 48 48" xml:space="preserve">
    <polygon fill="#f8f8f8" points="30,3 8,3 8,45 40,45 40,13" stroke="#b2b2b2" stroke-width=".5"></polygon>
    <g>
        <rect x="22" y="21" fill="#b2b2b2" width="4" height="2"></rect>
        <rect x="22" y="15" fill="#b2b2b2" width="4" height="2"></rect>
        <rect x="22" y="18" fill="#b2b2b2" width="4" height="2"></rect>
        <rect x="22" y="24" fill="#b2b2b2" width="4" height="2"></rect>
        <rect x="22" y="9" fill="#b2b2b2" width="4" height="2"></rect>
        <rect x="22" y="3" fill="#b2b2b2" width="4" height="2"></rect>
        <rect x="22" y="6" fill="#b2b2b2" width="4" height="2"></rect>
        <rect x="22" y="12" fill="#b2b2b2" width="4" height="2"></rect>
    </g>
    <path fill="#9b9b9b" d="M26,27h-4c0,3-2,6-2,8c0,2.209,1.791,4,4,4s4-1.791,4-4C28,33,26,30,26,27z M24,37c-1.104,0-2-0.896-2-2s0.896-2,2-2s2,0.896,2,2S25.104,37,24,37z"></path>
</svg>