<svg version="1.1" xmlns="http://www.w3.org/2000/svg" xmlns:xlink="http://www.w3.org/1999/xlink" viewBox="0 0 48 48" enable-background="new 0 0 48 48" xml:space="preserve">
    <path fill="#FFECB3" d="M38.615,41H9.385C8.003,41,7,39.99,7,38.6V28c0-0.553,0.448-1,1-1h32c0.553,0,1,0.447,1,1v10.6C41,39.99,39.997,41,38.615,41z"></path>
    <rect x="8" y="30.001" fill="#DBC07F" width="32" height="3"></rect>
    <g>
        <rect x="32.309" y="30" fill="#3E2723" width="2.769" height="6.999"></rect>
        <rect x="28.154" y="30" fill="#3E2723" width="2.769" height="6.999"></rect>
        <rect x="21.231" y="30" fill="#3E2723" width="2.769" height="6.999"></rect>
        <rect x="17.077" y="30" fill="#3E2723" width="2.769" height="6.999"></rect>
        <rect x="12.923" y="30" fill="#3E2723" width="2.77" height="6.999"></rect>
    </g>
    <g>
        <path fill="#795548" d="M38.615,42H9.385C7.455,42,6,40.538,6,38.6V28c0-1.103,0.897-2,2-2h32c1.103,0,2,0.897,2,2v10.6C42,40.538,40.545,42,38.615,42z M8,28v10.6C8,39.438,8.557,40,9.385,40h29.23C39.443,40,40,39.438,40,38.6V28H8z"></path>
        <path fill="#5D4037" d="M26.631,14.12l-2.492-4.04C23.169,8.26,21.231,7,19.154,7h-7.615C8.492,7,6,9.52,6,11.6V30h36v-7.2c0-3.08-2.492-5.8-5.539-5.8h-4.846C29.539,17,27.6,15.94,26.631,14.12z"></path>
    </g>
    <g>
        <rect x="6" y="30.001" fill="#3E2723" width="2" height="3"></rect>
        <rect x="40" y="30.001" fill="#3E2723" width="2" height="3"></rect>
    </g>
</svg>