<svg version="1.1" xmlns="http://www.w3.org/2000/svg" xmlns:xlink="http://www.w3.org/1999/xlink" viewBox="0 0 48 48" style="enable-background:new 0 0 48 48;" xml:space="preserve">
    <path style="fill:#E53935;" d="M26.898,7.563c0.138-1.018,0.431-1.397,0.629-1.515c0.13,0.065,0.281,0.1,0.436,0.1C28.705,6.148,29,5.512,29,5.236s-0.066-1.235-1.307-1.235c-1.399,0-2.158,1.545-2.554,3.045L26.898,7.563z"></path>
    <path style="fill:#F44336;" d="M40,42H8c-1.105,0-2-0.895-2-2V24c0-1.105,0.895-2,2-2h32c1.105,0,2,0.895,2,2v16C42,41.105,41.105,42,40,42z"></path>
    <path style="fill:#455A64;" d="M42,25h-4.4c-0.9,0-1.6,0.7-1.6,1.6v10.8c0,0.9,0.7,1.6,1.6,1.6H42V25z"></path>
    <path style="fill:#FFF8E1;" d="M16,40H8V24h8V40z M39,29c0.6,0,1-0.4,1-1s-0.4-1-1-1s-1,0.4-1,1S38.4,29,39,29z M39,33c0.6,0,1-0.4,1-1s-0.4-1-1-1s-1,0.4-1,1C38,32.6,38.4,33,39,33z M39,37c0.6,0,1-0.4,1-1s-0.4-1-1-1s-1,0.4-1,1S38.4,37,39,37z"></path>
    <path style="fill:#F44336;" d="M19,6c-4.3,0-6,0.648-6,1.948c0,1.4,2,5.1,2,5.1v1.139c0,0,8.219,2.656,18,2.5v-0.639c0,0,4,0.018,4-1.048C36.9,12.1,29.471,6,19,6z"></path>
    <path style="fill:#E53935;" d="M15,14.344v-1.295c0,0-2-3.8-2-5.1s15.5,8.1,20,8.1V17C33,17,23.312,16.312,15,14.344z"></path>
    <path style="fill:#B71C1C;" d="M15.4,13.148l-0.4-0.2c0,0.1,0,0.1,0,0.1v2c0,0,4.156,1.952,18,1.952v-0.933c-0.676-0.009-1.934-0.265-3.069-0.718C21.431,15.248,15.4,13.148,15.4,13.148z"></path>
    <path style="fill:#37474F;" d="M10,26h6v2h-6V26z M10,31h6v-2h-6V31z M10,34h6v-2h-6V34z M10,38h6v-2h-6V38z"></path>
    <path style="fill:#A1887F;" d="M18,22v20c0,0.8-2,2-2,2l0,0V20l0,0C16,20,18,21.2,18,22z M20,20L20,20v24l0,0c0,0,2-1.2,2-2V22C22,21.2,20,20,20,20z M24,20L24,20v24l0,0c0,0,2-1.2,2-2V22C26,21.2,24,20,24,20z M28,20L28,20v24l0,0c0,0,2-1.2,2-2V22C30,21.2,28,20,28,20z M32,20L32,20v24l0,0c0,0,2-1.2,2-2V22C34,21.2,32,20,32,20z"></path>
    <path style="fill:#5D4037;" d="M16,20v24c0,0-1.8-0.9-2-2V22C14.2,20.9,16,20,16,20z M18,22v20c0.2,1.1,2,2,2,2V20C20,20,18.2,20.9,18,22z M22,22v20c0.2,1.1,2,2,2,2V20C24,20,22.2,20.9,22,22z M26,22v20c0.2,1.1,2,2,2,2V20C28,20,26.2,20.9,26,22zM30,22v20c0.2,1.1,2,2,2,2V20C32,20,30.2,20.9,30,22z"></path>
</svg>