<svg version="1.1" xmlns="http://www.w3.org/2000/svg" xmlns:xlink="http://www.w3.org/1999/xlink" viewBox="0 0 48 48" enable-background="new 0 0 48 48" xml:space="preserve">
    <path fill="#3F51B5" d="M11,26c0,0,3,6.001,13,6.001S37.063,26,37.063,26C37,13,38,6.983,24,6.983S11,13,11,26z"></path>
    <path fill="#1A237E" d="M31.921,10.122C30.213,8.267,27.885,7.236,25,7.041V7h-2v0.04c-2.896,0.191-5.232,1.222-6.944,3.082C12.536,13.947,12.983,19.834,13,20v8.387c0.536,0.474,1.204,0.964,2,1.43l-0.003-9.899c-0.004-0.052-0.401-5.254,2.531-8.44c1.326-1.441,3.164-2.259,5.473-2.438V9c0.332,0.015,0.651,0.038,1,0.038c0.348,0,0.668-0.023,1-0.038v0.04c2.293,0.183,4.121,0.997,5.441,2.429c2.926,3.17,2.543,8.397,2.535,8.531v9.843c0.789-0.455,1.461-0.935,2-1.399l-0.004-8.36C34.994,19.834,35.44,13.947,31.921,10.122z"></path>
    <g>
        <path fill="#F44336" d="M37.06,25.067c0.001,0.308,0.001,0.616,0.003,0.933c0,0-3.063,6.001-13.063,6.001S11,26,11,26c0-0.338-0.001-0.668-0.002-0.996C10.976,25.038,9,28.023,9,32.001c0,4,4,10,15,10s15-5,15-10C39,27.498,37.383,25.435,37.06,25.067z"></path>
        <ellipse fill="#F44336" cx="24" cy="7.497" rx="2" ry="1.497"></ellipse>
    </g>
    <path fill="#FDD835" d="M24.44,20.727v-2.8c1.138,0,1.518,1.145,1.518,1.527h2.53c-0.127-1.654-1.139-3.182-4.048-3.436V15h-1.012v1.145c-1.392,0-4.174,0.891-4.174,3.438c0,2.418,2.402,2.799,4.174,3.309v3.31c-1.139-0.255-1.897-1.02-1.897-2.165H19c0.253,2.165,1.392,3.691,4.554,3.946V29h1.013v-1.019c2.656,0,4.554-1.781,4.428-3.31C28.994,21.491,26.211,21.109,24.44,20.727z M23.554,20.473c-0.632-0.128-1.644-0.383-1.644-1.272c0-1.273,1.391-1.273,1.644-1.273V20.473z M24.566,26.071v-3.054c0.759,0.255,2.023,0.51,2.023,1.528C26.59,25.563,25.199,26.071,24.566,26.071z"></path>
</svg>