<svg version="1.1" xmlns="http://www.w3.org/2000/svg" xmlns:xlink="http://www.w3.org/1999/xlink" viewBox="0 0 48 48" enable-background="new 0 0 48 48" xml:space="preserve">
    <path fill="#2196F3" d="M24.5,14C16.525,14,10,20.524,10,28.5C10,36.475,16.525,43,24.5,43C32.475,43,39,36.475,39,28.5C39,20.524,32.475,14,24.5,14z"></path>
    <g>
        <path fill="#8BC34A" d="M23.84,35.45c-0.986-0.33-1.976-0.33-2.8-1.152c-0.165-0.328-0.165-0.659-0.331-0.988c-0.329-0.33-1.152-0.494-1.481-0.66c-0.659,0-1.32,0-2.143,0c-0.33,0-0.823,0-1.153,0c-0.494-0.164-0.823-0.823-1.154-1.316c-0.164-0.165-0.164-0.496-0.493-0.496c-0.331-0.164-0.66,0.166-0.989,0c-0.166-0.164-0.166-0.328-0.166-0.492c0-0.497,0.33-0.989,0.661-1.321c0.494-0.327,0.986,0.167,1.48,0.167c0.166,0,0.166,0,0.331,0.165c0.495,0.165,0.659,0.823,0.659,1.317c0,0.164,0,0.33,0,0.33c0,0.165,0.165,0.165,0.329,0.165c0.164-0.823,0.164-1.647,0.33-2.472c0-0.988,0.986-1.977,1.813-2.308c0.33-0.166,0.494,0.164,0.823,0c0.989-0.329,3.46-1.317,2.966-2.637c-0.329-1.154-1.318-2.306-2.637-2.142c-0.329,0-0.658,0.164-0.822,0.33c-0.495,0.33-1.485,1.318-1.979,1.318c-0.823,0-0.823-1.153-0.658-1.813c0.164-0.661,1.646-2.801,2.637-2.474c0.329,0.166,0.493,0.332,0.822,0.495c0.329,0.166,0.823,0.166,1.318,0.166c0.165,0,0.331,0,0.494-0.166c0.166-0.163,0.166-0.163,0.166-0.329c0-0.493-0.495-0.988-0.824-1.317c-0.331-0.33-0.825-0.661-1.318-0.824c-1.815-0.164-4.451,0.494-5.768,1.648c-0.144,0.126-0.283,0.266-0.419,0.41c-0.046,0.053-0.096,0.102-0.141,0.154c-0.04,0.045-0.077,0.093-0.116,0.139c-0.25,0.305-0.485,0.622-0.709,0.947c-0.65,0.99-1.178,2.119-1.58,3.127c-0.494,1.153-0.661,2.308-0.823,3.461c-0.042,0.205-0.083,0.4-0.114,0.591c-0.019,0.259-0.035,0.517-0.04,0.778c0.028,0.3,0.116,0.605,0.315,0.938c0.496,0.988,1.484,1.978,2.473,2.636c0.659,0.495,1.977,0.495,2.637,1.319c0.494,0.659,0.329,1.481,0.329,2.305c0,0.99,0.66,1.813,0.988,2.637c0.166,0.496,0.33,1.155,0.495,1.648c0,0.165,0.165,1.153,0.165,1.318c0.987,0.492,1.813,0.99,2.965,1.318c0.166,0,0.824-0.988,0.824-1.152c0.494-0.497,0.823-1.155,1.318-1.484c0.331-0.164,0.659-0.33,0.988-0.659s0.494-0.989,0.66-1.483c0.163-0.329,0.329-0.987,0.163-1.482C24.334,35.782,24.171,35.617,23.84,35.45z"></path>
        <path fill="#8BC34A" d="M38.979,28.085c-0.007-0.244-0.018-0.486-0.037-0.728c-0.013-0.185-0.03-0.366-0.05-0.549c-0.268-2.274-1.064-4.39-2.268-6.222c-0.086-0.099-0.168-0.201-0.261-0.294c-0.139-0.175-0.286-0.417-0.445-0.683c-0.529-0.678-1.117-1.304-1.757-1.878c-0.233-0.054-0.487-0.034-0.764,0.089c-0.494,0.162-0.824,0.824-1.152,1.151c-0.33,0.495-0.66,0.989-0.989,1.485c-0.163,0.164-0.329,0.493-0.163,0.658c0,0.166,0.163,0.166,0.329,0.166c0.328,0.164,0.493,0.164,0.823,0.328c0.163,0,0.328,0.164,0.163,0.33c0,0,0,0.165-0.163,0.165c-0.823,0.823-1.647,1.481-2.473,2.305c-0.165,0.166-0.329,0.498-0.329,0.661c0,0.164,0.164,0.164,0.164,0.329c0,0.164-0.164,0.164-0.33,0.33c-0.329,0.165-0.657,0.329-0.823,0.492c-0.163,0.33,0,0.825-0.163,1.155c-0.166,0.823-0.66,1.482-0.989,2.307c-0.329,0.494-0.495,0.988-0.824,1.483c0,0.658-0.165,1.153,0.164,1.647c0.823,1.154,2.307,0.494,3.462,0.989c0.328,0.165,0.657,0.165,0.823,0.493c0.495,0.495,0.495,1.319,0.658,1.813c0.165,0.66,0.33,1.319,0.66,1.977c0.155,0.787,0.46,1.57,0.632,2.215c1.015-0.724,1.938-1.567,2.737-2.521c0.03-0.038,0.064-0.073,0.095-0.111c0.144-0.176,0.271-0.363,0.407-0.545c0.199-0.276,0.4-0.553,0.579-0.85c0.168-0.235,0.314-0.481,0.457-0.729c0.253-0.451,0.488-0.914,0.692-1.394c0.008-0.017,0.015-0.034,0.021-0.051c0.714-1.688,1.11-3.539,1.127-5.476C38.992,28.444,38.985,28.265,38.979,28.085z"></path>
        <path fill="#8BC34A" d="M24.666,20.951c0.163,0,0.329-0.166,0.657-0.329c0.495-0.329,0.989-0.824,1.483-1.154c0.495-0.329,0.989-0.822,1.318-1.153c0.495-0.331,0.823-0.988,0.989-1.481c0.163-0.331,0.658-0.988,0.493-1.485c-0.164-0.327-0.987-0.492-1.316-0.658c-1.318-0.331-2.473-0.493-3.791-0.493c-0.495,0-1.152,0.162-1.318,0.659c-0.165,0.824,0.495,0.658,1.152,0.824c0,0,0.166,1.317,0.166,1.48c0.166,0.823-0.329,1.321-0.329,2.145c0,0.493,0,1.317,0.329,1.646H24.666z"></path>
    </g>
    <path fill="none" stroke="#9C27B0" stroke-width="2" stroke-miterlimit="10" d="M8,27v-4c0-9.389,7.388-17,16.5-17S41,13.611,41,23v4"></path>
    <g>
        <path fill="#37474F" d="M10,34h2V22h-2c-2.209,0-4,1.791-4,4v4C6,32.209,7.791,34,10,34"></path>
        <path fill="#37474F" d="M39,34h-2V22h2c2.209,0,4,1.791,4,4v4C43,32.209,41.209,34,39,34"></path>
    </g>
</svg>