<svg version="1.1" xmlns="http://www.w3.org/2000/svg" xmlns:xlink="http://www.w3.org/1999/xlink" viewBox="0 0 80 80" style="enable-background:new 0 0 80 80;" xml:space="preserve">
    <g>
        <path style="fill:#cabae0;" d="M8,55.5c-3.033,0-5.5-2.468-5.5-5.5V30c0-3.032,2.467-5.5,5.5-5.5h11.5v31H8z"></path>
        <path style="fill:#7b5e9c;" d="M19,25v30H8c-2.757,0-5-2.243-5-5V30c0-2.757,2.243-5,5-5H19 M20,24H8c-3.314,0-6,2.686-6,6v20c0,3.314,2.686,6,6,6h12V24L20,24z"></path>
    </g>
    <g>
        <polygon style="fill:#cabae0;" points="18.5,56.053 18.5,24.308 43.5,3.08 43.5,76.931 	"></polygon>
        <path style="fill:#7b5e9c;" d="M43,4.161v71.701L19,55.818V24.539L43,4.161 M44,2L18,24.076v32.21L44,78V2L44,2z"></path>
    </g>
    <g>
        <g>
            <path style="fill:#F78F8F;" d="M59,77.5c-10.201,0-18.5-8.299-18.5-18.5S48.799,40.5,59,40.5S77.5,48.799,77.5,59S69.201,77.5,59,77.5z M49.208,71.007l0.458,0.346C52.385,73.412,55.612,74.5,59,74.5c8.547,0,15.5-6.953,15.5-15.5c0-3.388-1.088-6.616-3.146-9.334l-0.346-0.458L49.208,71.007z M59,43.5c-8.547,0-15.5,6.953-15.5,15.5c0,3.386,1.088,6.614,3.146,9.334l0.346,0.458l21.801-21.799l-0.458-0.347C65.615,44.588,62.387,43.5,59,43.5z"></path>
        </g>
        <g>
            <path style="fill:#C74343;" d="M59,41c9.925,0,18,8.075,18,18s-8.075,18-18,18s-18-8.075-18-18S49.075,41,59,41 M46.94,69.552l0.812-0.812L68.74,47.752l0.812-0.812l-0.915-0.693C65.829,44.123,62.497,43,59,43c-8.822,0-16,7.178-16,16c0,3.497,1.123,6.829,3.247,9.636L46.94,69.552 M59,75c8.822,0,16-7.178,16-16c0-3.497-1.123-6.829-3.247-9.636l-0.693-0.915l-0.812,0.812L49.26,70.248l-0.812,0.812l0.915,0.693C52.171,73.877,55.503,75,59,75 M59,40c-10.493,0-19,8.506-19,19c0,10.493,8.507,19,19,19s19-8.507,19-19C78,48.506,69.493,40,59,40L59,40z M47.045,68.033C45.142,65.518,44,62.396,44,59c0-8.284,6.716-15,15-15c3.396,0,6.518,1.142,9.033,3.045L47.045,68.033L47.045,68.033z M59,74c-3.396,0-6.518-1.142-9.033-3.045l20.988-20.988C72.858,52.482,74,55.604,74,59C74,67.284,67.284,74,59,74L59,74z"></path>
        </g>
    </g>
</svg>