<svg xmlns="http://www.w3.org/2000/svg" width="50" height="50" viewBox="0 0 50 50">
    <path fill="rgb(120, 120, 120)" d="M33.6,42c-3.915,0-6.977-1.374-8.6-3.768C23.377,40.626,20.316,42,16.4,42C11.219,42,3,37.521,3,25.5C3,19.938,4.754,7,21,7 c0.552,0,1,0.448,1,1v2c0,0.552-0.448,1-1,1c-4.816,0-10,4.538-10,14.5c0,4.623,1.598,11.5,6,11.5c3.117,0,4.898-3.246,5.987-5.909 C21.004,27.752,20,24.628,20,21.8c0-6.495,2.693-8.8,5-8.8s5,2.305,5,8.8c0,2.869-0.978,5.913-2.985,9.291 C28.636,35.013,30.647,37,33,37c4.402,0,6-6.877,6-11.5C39,15.538,33.816,11,29,11c-0.553,0-1-0.448-1-1V8c0-0.552,0.447-1,1-1 c16.246,0,18,12.938,18,18.5C47,37.521,38.78,42,33.6,42z"></path>
</svg>