<svg version="1.1" xmlns="http://www.w3.org/2000/svg" xmlns:xlink="http://www.w3.org/1999/xlink" viewBox="0 0 80 80" style="enable-background:new 0 0 80 80;" xml:space="preserve">
    <g>
        <polygon style="fill:#B0C1D4;" points="37.5,68.897 37.5,11.5 42.5,11.5 42.5,68.897 40,74.73 	"></polygon>
        <path style="fill:#66798F;" d="M42,12v56.795l-2,4.667l-2-4.667V12H42 M43,11h-6v58l3,7l3-7V11L43,11z"></path>
    </g>
    <g>
        <path style="fill:#F78F8F;" d="M40,29.5c-6.893,0-12.5-5.607-12.5-12.5S33.107,4.5,40,4.5S52.5,10.107,52.5,17S46.893,29.5,40,29.5z"></path>
        <path style="fill:#C74343;" d="M40,5c6.617,0,12,5.383,12,12s-5.383,12-12,12s-12-5.383-12-12S33.383,5,40,5 M40,4c-7.18,0-13,5.82-13,13s5.82,13,13,13s13-5.82,13-13S47.18,4,40,4L40,4z"></path>
    </g>
</svg>