<svg version="1.1" id="Layer_1" xmlns="http://www.w3.org/2000/svg" xmlns:xlink="http://www.w3.org/1999/xlink" x="0px" y="0px" viewBox="0 0 80 80" style="enable-background:new 0 0 80 80;" xml:space="preserve">
    <g>
        <path style="fill:#F78F8F;" d="M5.456,77.5c-0.854,0-1.769-0.295-2.175-0.701c-0.688-0.691-0.945-1.702-0.672-2.637l10.749-27.268l19.753,19.804L5.92,77.469C5.769,77.49,5.613,77.5,5.456,77.5C5.456,77.5,5.456,77.5,5.456,77.5z"></path>
        <path style="fill:#C74343;" d="M13.543,47.787L32.22,66.513L5.793,76.981C5.686,76.994,5.573,77,5.457,77c-0.782,0-1.555-0.288-1.82-0.553c-0.55-0.553-0.762-1.356-0.559-2.105L13.543,47.787 M13.173,46L2.129,74.021c-0.325,1.112-0.018,2.31,0.798,3.131C3.426,77.651,4.468,78,5.457,78c0.202,0,0.402-0.015,0.594-0.045l27.951-11.072L13.173,46L13.173,46z"></path>
    </g>
    <g>
        <polygon style="fill:#F2FAFF;" points="7.739,61.151 13.358,46.894 33.111,66.698 18.893,72.33 	"></polygon>
        <g>
            <path style="fill:#788B9C;" d="M13.543,47.787L32.22,66.513l-13.206,5.231L8.324,61.029L13.543,47.787 M13.173,46L7.154,61.272L18.77,72.916l15.231-6.033L13.173,46L13.173,46z"></path>
        </g>
    </g>
    <line style="fill:none;stroke:#C74343;stroke-miterlimit:10;" x1="5.5" y1="77.5" x2="77" y2="77.5"></line>
    <g>
        <path style="fill:#F2FAFF;" d="M34.282,69.5c-1.325,0-2.571-0.516-3.509-1.454L11.951,49.224c-0.938-0.938-1.454-2.184-1.454-3.509s0.517-2.572,1.454-3.509L50.203,3.954C51.141,3.016,52.387,2.5,53.712,2.5c1.326,0,2.572,0.516,3.51,1.454l18.822,18.822c1.935,1.935,1.935,5.083,0,7.019L37.792,68.046C36.854,68.984,35.608,69.5,34.282,69.5z"></path>
        <g>
            <path style="fill:#788B9C;" d="M53.712,3c1.192,0,2.313,0.464,3.156,1.307L75.69,23.129c1.74,1.74,1.74,4.571,0,6.311L37.438,67.693C36.595,68.536,35.474,69,34.282,69s-2.313-0.464-3.156-1.307L12.304,48.871c-1.74-1.74-1.74-4.571,0-6.311L50.556,4.307C51.399,3.464,52.52,3,53.712,3 M53.712,2c-1.398,0-2.796,0.533-3.863,1.6L11.597,41.852c-2.133,2.133-2.133,5.592,0,7.726L30.42,68.4c1.067,1.067,2.465,1.6,3.863,1.6s2.796-0.533,3.863-1.6l38.252-38.252c2.133-2.133,2.133-5.592,0-7.726L57.575,3.6C56.508,2.533,55.11,2,53.712,2L53.712,2z"></path>
        </g>
    </g>
    <g>
        <rect x="27.633" y="28.06" transform="matrix(0.7071 -0.7071 0.7071 0.7071 -22.9014 37.3751)" style="fill:#F78F8F;" width="12.064" height="36.544"></rect>
        <g>
            <path style="fill:#C74343;" d="M25.01,29.854l25.134,25.134l-7.823,7.823L17.187,37.677L25.01,29.854 M25.01,28.44l-9.237,9.237L42.32,64.225l9.237-9.237L25.01,28.44L25.01,28.44z"></path>
        </g>
    </g>
</svg>