<svg version="1.1" xmlns="http://www.w3.org/2000/svg" xmlns:xlink="http://www.w3.org/1999/xlink" viewBox="0 0 80 80" style="enable-background:new 0 0 80 80;" xml:space="preserve">
    <g>
        <path style="fill:#FFFFFF;" d="M2.5,74.5V29.778L35.68,6.852c1.275-0.882,2.77-1.348,4.32-1.348s3.045,0.466,4.32,1.348L77.5,29.778V74.5H2.5z"></path>
        <g>
            <path style="fill:#BA9B48;" d="M40,6.004c1.449,0,2.844,0.435,4.036,1.259L77,30.04V74H3V30.04L35.964,7.263C37.156,6.44,38.551,6.004,40,6.004 M40,5.004c-1.61,0-3.219,0.479-4.605,1.436L2,29.516V75h76V29.516L44.605,6.441C43.219,5.483,41.61,5.004,40,5.004L40,5.004z"></path>
        </g>
    </g>
    <path style="fill:#FFEEA3;" d="M50,49H30L3,30.04L35.964,7.263C37.156,6.44,38.551,6.004,40,6.004s2.844,0.435,4.036,1.259L77,30.04L50,49z"></path>
    <polygon style="fill:#EBD7A7;" points="50,48 30,48 3.718,29.544 3,30.04 30,49 50,49 77,30.04 76.282,29.544 "></polygon>
    <g>
        <polygon style="fill:#36404D;" points="38,31 38,49 42,49 42,31 52,31 40,19 28,31 	"></polygon>
    </g>
</svg>