<svg version="1.1" xmlns="http://www.w3.org/2000/svg" xmlns:xlink="http://www.w3.org/1999/xlink" viewBox="0 0 80 80" style="enable-background:new 0 0 80 80;" xml:space="preserve">
    <g>
        <path style="fill:#FFEEA3;" d="M40,77.5C19.322,77.5,2.5,60.678,2.5,40S19.322,2.5,40,2.5S77.5,19.322,77.5,40S60.678,77.5,40,77.5z"></path>
        <g>
            <path style="fill:#BA9B48;" d="M40,3c20.402,0,37,16.598,37,37S60.402,77,40,77S3,60.402,3,40S19.598,3,40,3 M40,2C19.013,2,2,19.013,2,40s17.013,38,38,38s38-17.013,38-38S60.987,2,40,2L40,2z"></path>
        </g>
    </g>
    <path style="fill:none;stroke:#36404D;stroke-width:4;stroke-miterlimit:10;" d="M26,38l3.525-7.05c0.311-0.623,0.78-1.153,1.359-1.539l3.927-2.739c0.938-0.625,2.096-0.826,3.189-0.552l4.215,1.434c1.133,0.283,2.085,1.047,2.608,2.092l2.354,4.709c0.522,1.044,1.475,1.809,2.608,2.092L56,38"></path>
    <circle style="fill:#36404D;" cx="43" cy="17" r="5"></circle>
    <path style="fill:#36404D;" d="M35.887,27l-2.714,12.486c-0.543,1.9,0.271,3.8,1.357,5.157L44,54l-2.956-12.071L44,29l-2.413-2L35.887,27z"></path>
    <g>
        <path style="fill:#36404D;" d="M47.3,64H53c-1.086-2.714-3.8-9.5-4.886-12.757l-7.871-11.4L35.9,43.1l7.329,9.771L47.3,64z"></path>
        <polygon style="fill:#36404D;" points="28.486,64 34.729,56.943 36.9,50.429 32.829,45.814 30.386,53.686 22.243,64"></polygon>
    </g>
</svg>