<svg version="1.1" xmlns="http://www.w3.org/2000/svg" xmlns:xlink="http://www.w3.org/1999/xlink" viewBox="0 0 80 80" style="enable-background:new 0 0 80 80;" xml:space="preserve">
	<g>
		<path style="fill:#F78F8F;" d="M40,77.5C19.322,77.5,2.5,60.678,2.5,40S19.322,2.5,40,2.5S77.5,19.322,77.5,40S60.678,77.5,40,77.5 			z"></path>
		<path style="fill:#C74343;" d="M40,3c20.402,0,37,16.598,37,37S60.402,77,40,77S3,60.402,3,40S19.598,3,40,3 M40,2 			C19.013,2,2,19.013,2,40s17.013,38,38,38s38-17.013,38-38S60.987,2,40,2L40,2z"></path>
	</g>
	<rect x="37" y="20" transform="matrix(-0.7071 -0.7071 0.7071 -0.7071 40 96.5685)" style="fill:#FFFFFF;" width="6" height="40"></rect>
	<rect x="37" y="20" transform="matrix(0.7071 -0.7071 0.7071 0.7071 -16.5685 40)" style="fill:#FFFFFF;" width="6" height="40"></rect>
</svg>