<svg version="1.1" xmlns="http://www.w3.org/2000/svg" xmlns:xlink="http://www.w3.org/1999/xlink" viewBox="0 0 80 80" style="enable-background:new 0 0 80 80;" xml:space="preserve">
	<g>
		<polygon style="fill:#BAE0BD;" points="34.5,61.5 34.5,23.5 19.278,23.5 40,2.708 60.722,23.5 45.5,23.5 45.5,61.5 	"></polygon>
		<g>
			<path style="fill:#5E9C76;" d="M40,3.417L59.517,23H46h-1v1v37H35V24v-1h-1H20.483L40,3.417 M40,2L18.074,24H34v38h12V24h15.926
				L40,2L40,2z"></path>
		</g>
	</g>
	<g>
		<rect x="2.5" y="68.5" style="fill:#BAE0BD;" width="75" height="9"></rect>
		<g>
			<path style="fill:#5E9C76;" d="M77,69v8H3v-8H77 M78,68H2v10h76V68L78,68z"></path>
		</g>
	</g>
</svg>