<svg version="1.1" id="Layer_1" xmlns="http://www.w3.org/2000/svg" xmlns:xlink="http://www.w3.org/1999/xlink" x="0px" y="0px" viewBox="0 0 80 80" style="enable-background:new 0 0 80 80;" xml:space="preserve">
    <g>
        <rect x="2.5" y="2.5" style="fill:#FFFFFF;" width="75" height="75"></rect>
        <g>
            <path style="fill:#788B9C;" d="M77,3v74H3V3H77 M78,2H2v76h76V2L78,2z"></path>
        </g>
    </g>
    <rect x="-19.5" y="39.5" transform="matrix(-1.836970e-16 1 -1 -1.836970e-16 57.5 22.5)" style="fill:#C5D4DE;" width="74" height="1"></rect>
    <rect x="-4.5" y="39.5" transform="matrix(-1.836970e-16 1 -1 -1.836970e-16 72.5 7.5)" style="fill:#C5D4DE;" width="74" height="1"></rect>
    <rect x="10.5" y="39.5" transform="matrix(-1.836970e-16 1 -1 -1.836970e-16 87.5 -7.5)" style="fill:#C5D4DE;" width="74" height="1"></rect>
    <rect x="25.5" y="39.5" transform="matrix(-1.836970e-16 1 -1 -1.836970e-16 102.5 -22.5)" style="fill:#C5D4DE;" width="74" height="1"></rect>
    <rect x="3" y="17" transform="matrix(-1 -1.224647e-16 1.224647e-16 -1 80 35)" style="fill:#C5D4DE;" width="74" height="1"></rect>
    <rect x="3" y="32" transform="matrix(-1 -1.224647e-16 1.224647e-16 -1 80 65)" style="fill:#C5D4DE;" width="74" height="1"></rect>
    <rect x="3" y="47" transform="matrix(-1 -1.224647e-16 1.224647e-16 -1 80 95)" style="fill:#C5D4DE;" width="74" height="1"></rect>
    <rect x="3" y="62" transform="matrix(-1 -1.224647e-16 1.224647e-16 -1 80 125)" style="fill:#C5D4DE;" width="74" height="1"></rect>
</svg>