<svg version="1.1" xmlns="http://www.w3.org/2000/svg" xmlns:xlink="http://www.w3.org/1999/xlink" viewBox="0 0 80 80" style="enable-background:new 0 0 80 80;" xml:space="preserve">
    <g>
        <polygon style="fill:#F2FAFF;" points="28.5,67.5 28.5,2.5 61.793,2.5 77.5,18.207 77.5,67.5 	"></polygon>
        <g>
            <path style="fill:#788B9C;" d="M61.586,3L77,18.414V67H29V3H61.586 M62,2H28v66h50V18L62,2L62,2z"></path>
        </g>
    </g>
    <g>
        <polygon style="fill:#FFFFFF;" points="61.5,18.5 61.5,2.5 61.793,2.5 77.5,18.207 77.5,18.5 	"></polygon>
        <g>
            <path style="fill:#788B9C;" d="M62,3.414L76.586,18H62V3.414 M62,2h-1v17h17v-1L62,2L62,2z"></path>
        </g>
    </g>
    <g>
        <polygon style="fill:#FFFFFF;" points="2.5,77.5 2.5,12.5 35.793,12.5 51.5,28.207 51.5,77.5 	"></polygon>
        <g>
            <path style="fill:#788B9C;" d="M35.586,13L51,28.414V77H3V13H35.586 M36,12H2v66h50V28L36,12L36,12z"></path>
        </g>
    </g>
    <g>
        <polygon style="fill:#FFFFFF;" points="35.5,28.5 35.5,12.5 35.793,12.5 51.5,28.207 51.5,28.5 	"></polygon>
        <g>
            <path style="fill:#788B9C;" d="M36,13.414L50.586,28H36V13.414 M36,12h-1v17h17v-1L36,12L36,12z"></path>
        </g>
    </g>
</svg>