<svg version="1.1" xmlns="http://www.w3.org/2000/svg" xmlns:xlink="http://www.w3.org/1999/xlink" viewBox="0 0 80 80" style="enable-background:new 0 0 80 80;" xml:space="preserve">
    <g>
        <rect x="2.5" y="16.5" style="fill:#FFFFFF;" width="75" height="45"></rect>
        <g>
            <path style="fill:#788B9C;" d="M77,17v44H3V17H77 M78,16H2v46h76V16L78,16z"></path>
        </g>
    </g>
    <g>
        <rect x="2" y="2" style="fill:#788B9C;" width="76" height="16"></rect>
    </g>
    <rect x="30" y="6" style="fill:#FFFFFF;" width="44" height="8"></rect>
    <circle style="fill:#C8D1DB;" cx="22" cy="10" r="4"></circle>
    <circle style="fill:#C8D1DB;" cx="10" cy="10" r="4"></circle>
    <rect x="34" y="61" style="fill:#C8D1DB;" width="16" height="1"></rect>
    <g>
        <path style="fill:#8BB7F0;" d="M2.5,77.5v-7H34c2.481,0,4.5-2.019,4.5-4.5V47.5h-9.398L42,32.76L54.898,47.5H45.5V66c0,6.341-5.159,11.5-11.5,11.5H2.5z"></path>
        <g>
            <path style="fill:#4E7AB5;" d="M42,33.519L53.796,47H46h-1v1v18c0,6.065-4.935,11-11,11H3v-6h31c2.757,0,5-2.243,5-5V48v-1h-1h-7.796L42,33.519 M42,32L28,48h10v18c0,2.209-1.791,4-4,4H2v8h32c6.627,0,12-5.373,12-12V48h10L42,32L42,32z"></path>
        </g>
    </g>
</svg>