<svg version="1.1" xmlns="http://www.w3.org/2000/svg" xmlns:xlink="http://www.w3.org/1999/xlink" viewBox="0 0 80 80" style="enable-background:new 0 0 80 80;" xml:space="preserve">
    <g>
        <rect x="2.5" y="8.5" style="fill:#FFFFFF;" width="75" height="63"></rect>
        <g>
            <path style="fill:#788B9C;" d="M77,9v62H3V9H77 M78,8H2v64h76V8L78,8z"></path>
        </g>
    </g>
    
    <rect x="12" y="18" style="fill:#B5DEFF;" width="56" height="35.75"></rect>
    <rect x="12" y="38" style="fill:#D9F6FF;" width="56" height="16"></rect>
    <rect x="12" y="54" style="fill:#7AADF0;" width="56" height="8"></rect>
    <ellipse style="fill:#D9F6FF;" cx="29.5" cy="36.286" rx="7" ry="6.286"></ellipse>
    <ellipse style="fill:#D9F6FF;" cx="22.5" cy="36.286" rx="5.25" ry="4.714"></ellipse>
    <ellipse style="fill:#D9F6FF;" cx="40" cy="39.429" rx="7" ry="6.286"></ellipse>
    <ellipse style="fill:#D9F6FF;" cx="50.5" cy="36.286" rx="7" ry="6.286"></ellipse>
    <ellipse style="fill:#D9F6FF;" cx="64.5" cy="36.286" rx="3.5" ry="3.143"></ellipse>
    <ellipse style="fill:#D9F6FF;" cx="15.5" cy="36.286" rx="3.5" ry="3.143"></ellipse>
    <ellipse style="fill:#D9F6FF;" cx="57.5" cy="36.286" rx="5.25" ry="4.714"></ellipse>
    <polygon style="fill:#4A6D9C;" points="12,54 68,54 68,50.768 50.5,40 "></polygon>
    <polygon style="fill:#5D84B8;" points="54,54 12,54 12,46 29.5,38 "></polygon>
</svg>