<svg version="1.1" xmlns="http://www.w3.org/2000/svg" xmlns:xlink="http://www.w3.org/1999/xlink" viewBox="0 0 80 80" style="enable-background:new 0 0 80 80;" xml:space="preserve">
    <rect x="22" y="15" style="fill:#36404D;" width="56" height="1"></rect>
    <g>
        <circle style="fill:#8BB7F0;" cx="7.5" cy="15.5" r="5"></circle>
        <path style="fill:#4E7AB5;" d="M7.5,11c2.481,0,4.5,2.019,4.5,4.5S9.981,20,7.5,20S3,17.981,3,15.5S5.019,11,7.5,11 M7.5,10C4.462,10,2,12.462,2,15.5S4.462,21,7.5,21s5.5-2.462,5.5-5.5S10.538,10,7.5,10L7.5,10z"></path>
    </g>
    <rect x="22" y="39" style="fill:#36404D;" width="56" height="1"></rect>
    <g>
        <circle style="fill:#8BB7F0;" cx="7.5" cy="39.5" r="5"></circle>
        <path style="fill:#4E7AB5;" d="M7.5,35c2.481,0,4.5,2.019,4.5,4.5S9.981,44,7.5,44S3,41.981,3,39.5S5.019,35,7.5,35 M7.5,34C4.462,34,2,36.462,2,39.5S4.462,45,7.5,45s5.5-2.462,5.5-5.5S10.538,34,7.5,34L7.5,34z"></path>
    </g>
    <rect x="22" y="63" style="fill:#36404D;" width="56" height="1"></rect>
    <g>
        <circle style="fill:#8BB7F0;" cx="7.5" cy="63.5" r="5"></circle>
        <path style="fill:#4E7AB5;" d="M7.5,59c2.481,0,4.5,2.019,4.5,4.5S9.981,68,7.5,68S3,65.981,3,63.5S5.019,59,7.5,59 M7.5,58C4.462,58,2,60.462,2,63.5S4.462,69,7.5,69s5.5-2.462,5.5-5.5S10.538,58,7.5,58L7.5,58z"></path>
    </g>
</svg>