<svg version="1.1" xmlns="http://www.w3.org/2000/svg" xmlns:xlink="http://www.w3.org/1999/xlink" viewBox="0 0 80 80" style="enable-background:new 0 0 80 80;" xml:space="preserve">
    <g>
        <rect x="32.5" y="55.5" style="fill:#B0C1D4;" width="15" height="13"></rect>
        <path style="fill:#66798F;" d="M47,56v12H33V56H47 M48,55H32v14h16V55L48,55z"></path>
    </g>
    <g>
        <rect x="2.5" y="7.5" style="fill:#C2E8FF;" width="75" height="53"></rect>
        <g>
            <path style="fill:#66798F;" d="M77,8v52H3V8H77 M78,7H2v54h76V7L78,7z"></path>
        </g>
    </g>
    <rect x="3" y="53" style="fill:#66798F;" width="74" height="7"></rect>
    <g>
        <path style="fill:#B0C1D4;" d="M18.522,72.5c0.253-2.8,2.613-5,5.478-5h32c2.864,0,5.224,2.2,5.478,5H18.522z"></path>
        <path style="fill:#66798F;" d="M56,68c2.415,0,4.435,1.721,4.9,4L19.1,72c0.465-2.279,2.485-4,4.9-4H56 M56,67H24c-3.314,0-6,2.686-6,6v0h44v0C62,69.686,59.314,67,56,67L56,67z"></path>
    </g>
    <rect x="68" y="56" style="fill:#FFEEA3;" width="6" height="2"></rect>
    <g>
        <rect x="22.5" y="17.5" style="fill:#FFFFFF;" width="35" height="27"></rect>
        <g>
            <path style="fill:#788B9C;" d="M57,18v26H23V18H57 M58,17H22v28h36V17L58,17z"></path>
        </g>
    </g>
    <g>
        <rect x="22" y="17" style="fill:#788B9C;" width="36" height="6"></rect>
    </g>
</svg>