<?xml version="1.0" encoding="utf-8"?>

<svg version="1.2" baseProfile="tiny" id="Calque_1"
	 xmlns="http://www.w3.org/2000/svg" xmlns:xlink="http://www.w3.org/1999/xlink" x="0px" y="0px" viewBox="-281 373 48 48"
	 xml:space="preserve">
<path fill="#ACACAC" d="M-256,404.3l-0.9,2.6l2.1,4.5l4.4,1.6l3.7-0.1c0.2-1.3,2.4-2.2,2.4-2.2s0.7,0,1.1,0.2l2.1-5.7
	c-0.1-1.7-2.1-4.6-2.1-4.6l-4.7-3.6l-2.5,0.5l-2.1-0.8l-3.1,1.5c0,0-1.4,2.5-1.6,3.8L-256,404.3z"/>
<g>
	<g>
		<path fill="#FF4500" d="M-265.3,403.5l-1.4,1.4l9.5,9.5c2.3,2.3,5.4,3.6,8.8,3.6c3.4,0,6.5-1.3,8.8-3.6c4.8-4.7,4.8-12.8,0-17.6
			l-14.1-14.2l-1.4,1.4l14.1,14.2c4,4,4,10.8,0,14.8c-1.9,1.9-4.6,3-7.4,3c-2.8,0-5.4-1-7.4-3L-265.3,403.5z"/>
		<polygon fill="#FF4500" points="-270.7,389.8 -272.1,391.2 -259.7,403.7 -260.3,400.3 		"/>
		<polygon fill="#FF4500" points="-250.3,394.3 -261.7,382.8 -263.1,384.2 -253.7,393.7 		"/>
		
			<rect x="-274.7" y="388" transform="matrix(-0.7071 -0.7071 0.7071 -0.7071 -727.2827 476.8276)" fill="#FF4500" width="19.6" height="2"/>
	</g>
	<circle fill="#FF4500" cx="-257" cy="381" r="1"/>
	<circle fill="#FF4500" cx="-260" cy="378" r="1"/>
	<circle fill="#FF4500" cx="-268" cy="402" r="1"/>
	<circle fill="#FF4500" cx="-271" cy="399" r="1"/>
	<circle fill="#FF4500" cx="-274" cy="396" r="1"/>
	<circle fill="#FF4500" cx="-274" cy="388" r="1"/>
	<circle fill="#FF4500" cx="-265" cy="381" r="1"/>
	<circle fill="#FF4500" cx="-268" cy="378" r="1"/>
	<circle fill="#FF4500" cx="-274" cy="380" r="1"/>
	<circle fill="#FF4500" cx="-277" cy="377" r="1"/>
</g>
<path fill="#DBDBDB" d="M-249.3,402.2c0.9-1.9,3.3-1.4,3.3-1.4c1.1,0.3,1.6,1.4,1.6,2.5c-0.1-0.2-0.3-0.4-0.5-0.4
	c-1.3-0.6-2.8,0.1-3.3,1.4c-0.2,0.3-0.2,0.5-0.2,0.7C-249.1,404.4-249.6,403.3-249.3,402.2z"/>
<path fill="#DBDBDB" d="M-253.6,407.5c-0.6-0.9,0.3-1.8,0.3-1.8c0.5-0.4,1.1-0.3,1.6,0c-0.1,0-0.2,0-0.3,0.1
	c-0.6,0.4-0.7,1.2-0.3,1.8c0.1,0.2,0.2,0.2,0.3,0.3C-252.4,408-253,407.9-253.6,407.5z"/>
</svg>
