<svg version="1.1" xmlns="http://www.w3.org/2000/svg" xmlns:xlink="http://www.w3.org/1999/xlink" viewBox="0 0 80 80" style="enable-background:new 0 0 80 80;" xml:space="preserve">
    <g>
        <polygon style="fill:#BAE0BD;" points="4.5,77.5 4.5,64.5 7.5,64.5 7.5,74.5 72.5,74.5 72.5,64.5 75.5,64.5 75.5,77.5"></polygon>
        <g>
            <path style="fill:#5E9C76;" d="M75,65v12H5V65h2v9v1h1h64h1v-1v-9H75 M76,64h-4v10H8V64H4v14h72V64L76,64z"></path>
        </g>
    </g>
    <g>
        <polygon style="fill:#4E7AB5;" points="42,24 42,2 38,2 38,24 28,24 40,36 52,24"></polygon>
    </g>
    <g>
        <polygon style="fill:#4E7AB5;" points="64.392,49.043 70.492,27.905 66.649,26.796 60.549,47.934 50.941,45.161 59.143,60.018 74,51.816"></polygon>
    </g>
    <g>
        <polygon style="fill:#4E7AB5;" points="15.608,49.043 9.508,27.905 13.351,26.796 19.451,47.934 29.059,45.161 20.857,60.018 6,51.816"></polygon>
    </g>
</svg>