<svg version="1.1" xmlns="http://www.w3.org/2000/svg" xmlns:xlink="http://www.w3.org/1999/xlink" viewBox="0 0 80 80" style="enable-background:new 0 0 80 80;" xml:space="preserve">
    <g>
        <g>
            <path style="fill:#B0C1D4;" d="M10.5,75.5v-6.103l8-1.851V12.453l-8-1.851V4.5h33.709c7.895,0,14.034,1.457,18.246,4.331c4.153,2.833,6.259,6.883,6.259,12.039c0,9.498-5.759,14.47-10.689,15.843l-0.366,0.102v0.822l0.438,0.086                c4.704,0.584,13.479,6.864,13.479,16.788c0,6.406-2.32,11.555-6.896,15.304C60.073,73.587,53.677,75.5,45.667,75.5H10.5z                 M33.5,64.5h9.297c3.855,0,6.93-0.917,9.139-2.727c2.239-1.833,3.375-4.364,3.375-7.523c0-3.03-1.121-5.445-3.333-7.179                c-2.177-1.706-5.231-2.57-9.08-2.57H33.5V64.5z M33.5,33.5h7.601c3.439,0,6.197-0.855,8.197-2.543                c2.025-1.708,3.053-4.082,3.053-7.056c0-5.574-4.139-8.401-12.301-8.401H33.5V33.5z"></path>
        </g>
        <g>
            <path style="fill:#66798F;" d="M44.209,5c7.793,0,13.837,1.428,17.965,4.244c4.064,2.773,6.039,6.575,6.039,11.626c0,11.885-8.6,14.881-10.324,15.361l-0.732,0.236v0.76v0.884l0.877,0.109c2.54,0.315,5.789,2.216,8.276,4.841c2.173,2.294,4.764,6.143,4.764,11.45c0,6.337-2.196,11.216-6.712,14.918C59.849,73.125,53.558,75,45.667,75H22.97H18h-7v-5.205                l7.225-1.671L19,67.945V67.15V12.85v-0.795l-0.775-0.179L11,10.205V5h7h4.97H44.209 M33,34h1h7.1c3.56,0,6.427-0.895,8.52-2.66                c2.144-1.807,3.231-4.31,3.231-7.439C52.851,16.544,45.89,15,40.05,15H34h-1v1v17V34 M33,65h1h8.797                c3.974,0,7.155-0.956,9.456-2.84c2.361-1.933,3.557-4.594,3.557-7.91c0-3.192-1.186-5.74-3.525-7.573                C50.019,44.901,46.861,44,42.898,44H34h-1v1v19V65 M44.209,4H22.97H18h-8v7l8,1.85V67.15L10,69v7h8h4.97h22.697                c8.165,0,14.609-1.932,19.33-5.799c4.718-3.866,7.078-9.097,7.078-15.691c0-9.958-8.796-16.648-13.917-17.283v-0.032                c4.084-1.137,11.055-5.546,11.055-16.325c0-5.355-2.159-9.506-6.476-12.452C58.42,5.473,52.244,4,44.209,4L44.209,4z M34,33V16                h6.05c7.866,0,11.801,2.635,11.801,7.901c0,2.833-0.959,5.058-2.876,6.674C47.058,32.192,44.435,33,41.1,33H34L34,33z M34,64V45                h8.898c3.754,0,6.676,0.822,8.771,2.464c2.095,1.642,3.142,3.904,3.142,6.786c0,3.015-1.065,5.395-3.191,7.136                C49.49,63.13,46.55,64,42.797,64H34L34,64z"></path>
        </g>
    </g>
</svg>