<svg version="1.1" xmlns="http://www.w3.org/2000/svg" xmlns:xlink="http://www.w3.org/1999/xlink" viewBox="0 0 80 80" style="enable-background:new 0 0 80 80;" xml:space="preserve">
    <g>
        <g>
            <polygon style="fill:#B0C1D4;" points="24.5,73.5 24.5,70.423 33.5,68.923 33.5,10.5 14.262,10.5 10.662,19.5 8.5,19.5 8.5,6.5 71.5,6.5 71.5,19.5 69.338,19.5 65.738,10.5 46.5,10.5 46.5,68.923 55.5,70.423 55.5,73.5 		"></polygon>
        </g>
        <g>
            <path style="fill:#66798F;" d="M71,7v3v1v8h-1.323l-3.349-8.371L66.077,10H65.4H47h-1v1v57.5v0.847l0.836,0.139L55,70.847V73h-8H33h-8v-2.153l8.164-1.361L34,69.347V68.5V11v-1h-1H14.6h-0.677l-0.251,0.629L10.323,19H9v-8v-1V7H71 M72,6H8v4v1v9h3l3.6-9H33v57.5L24,70v4h9h14h9v-4l-9-1.5V11h18.4l3.6,9h3v-9v-1V6L72,6z"></path>
        </g>
    </g>
    <rect x="14" y="42" style="fill:#66798F;" width="52" height="1"></rect>
    <rect x="33" y="41" style="fill:#B0C1D4;" width="14" height="1"></rect>
</svg>