<svg version="1.1" xmlns="http://www.w3.org/2000/svg" xmlns:xlink="http://www.w3.org/1999/xlink" viewBox="0 0 80 80" style="enable-background:new 0 0 80 80;" xml:space="preserve">
    <g>
        <g>
            <path style="fill:#66798F;" d="M61.449,69.609h12.51V75h-19.63v-2.222c0-10.744,13.045-12.128,13.045-18.765c0-3.476-2.874-3.827-4.342-3.827c-2.538,0-4.966,1.008-7.284,3.025v-5.72c2.565-1.66,5.46-2.49,8.683-2.49C73.592,45,74,52.099,74,53.374C74,62.992,61.449,65.547,61.449,69.609z"></path>
        </g>
    </g>
    <g>
        <g>
            <polygon style="fill:#B0C1D4;" points="16.5,68.5 16.5,65.41 25.5,63.61 25.5,15.5 11.461,15.5 8.662,22.5 6.5,22.5 6.5,11.5 53.5,11.5 53.5,22.5 51.338,22.5 48.539,15.5 34.5,15.5 34.5,63.61 43.5,65.41 43.5,68.5 		"></polygon>
        </g>
        <g>
            <path style="fill:#66798F;" d="M53,12v1v3v6h-1.323l-2.549-6.371L48.877,15H48.2H35h-1v1v47.2v0.82l0.804,0.161L43,65.82V68h-8H25h-8v-2.18l8.196-1.639L26,64.02V63.2V16v-1h-1H11.8h-0.677l-0.251,0.629L8.323,22H7v-6v-3v-1H53 M54,11H6v2v3v7h3l2.8-7H25v47.2L16,65v4h9h10h9v-4l-9-1.8V16h13.2l2.8,7h3v-7v-3V11L54,11z"></path>
        </g>
    </g>
</svg>