<svg version="1.1" xmlns="http://www.w3.org/2000/svg" xmlns:xlink="http://www.w3.org/1999/xlink" viewBox="0 0 80 80" style="enable-background:new 0 0 80 80;" xml:space="preserve">
    <line style="fill:none;stroke:#66798F;stroke-width:2;stroke-miterlimit:10;" x1="8" y1="75" x2="72" y2="75"></line>
    <g>
        <g>
            <path style="fill:#B0C1D4;" d="M40,67.5c-14.061,0-25.5-11.439-25.5-25.5V8.609l-4-1V4.5h21v3.109l-5,1.25V42c0,7.444,6.056,13.5,13.5,13.5S53.5,49.444,53.5,42V8.859l-5-1.25V4.5h21v3.109l-4,1V42C65.5,56.061,54.061,67.5,40,67.5z"></path>
        </g>
        <g>
            <path style="fill:#66798F;" d="M69,5v2.219L65.757,8.03L65,8.219V9v33c0,13.785-11.215,25-25,25S15,55.785,15,42V9V8.219L14.243,8.03L11,7.219V5h3h13h4v2.219L26.757,8.28L26,8.469V9.25V42c0,7.72,6.28,14,14,14s14-6.28,14-14V9.25V8.469L53.243,8.28L49,7.219V5H69 M70,4H48v4l5,1.25V42c0,7.18-5.82,13-13,13s-13-5.82-13-13V9.25L32,8V4h-5H14h-4v4l4,1v33c0,14.359,11.641,26,26,26s26-11.641,26-26V9l4-1V4L70,4z"></path>
        </g>
    </g>
</svg>