<svg version="1.1" xmlns="http://www.w3.org/2000/svg" xmlns:xlink="http://www.w3.org/1999/xlink" viewBox="0 0 40 40" style="enable-background:new 0 0 40 40;" xml:space="preserve">
    <path style="fill:none;stroke:#4E7AB5;stroke-miterlimit:10;" d="M6.308,7.559C9.692,3.837,14.573,1.5,20,1.5c10.217,0,18.5,8.283,18.5,18.5"></path>
    <g>
        <g>
            <path style="fill:none;stroke:#4E7AB5;stroke-miterlimit:10;" d="M38.5,20c0,1.018-0.082,2.016-0.24,2.99"></path>
            <path style="fill:none;stroke:#4E7AB5;stroke-miterlimit:10;stroke-dasharray:5.3197,1.7732;" d="M37.891,24.724c-1.766,6.705-7.201,11.921-14.028,13.372"></path>
            <path style="fill:none;stroke:#4E7AB5;stroke-miterlimit:10;" d="M22.99,38.26c-0.973,0.158-1.972,0.24-2.99,0.24"></path>
        </g>
    </g>
    <g>
        <g>
            <path style="fill:none;stroke:#4E7AB5;stroke-miterlimit:10;" d="M20,38.5c-0.505,0-1.005-0.02-1.499-0.06"></path>
            <path style="fill:none;stroke:#4E7AB5;stroke-miterlimit:10;stroke-dasharray:2.8947,1.9298;" d="M16.587,38.186C8.792,36.732,2.716,30.389,1.662,22.46"></path>
            <path style="fill:none;stroke:#4E7AB5;stroke-miterlimit:10;" d="M1.56,21.499C1.52,21.005,1.5,20.505,1.5,20"></path>
        </g>
    </g>
    <g>
        <polygon style="fill:#8BB7F0;" points="5.448,2.064 12.286,8.902 4.231,10.812 	"></polygon>
        <g>
            <path style="fill:#4E7AB5;" d="M5.805,3.128l5.494,5.494l-6.472,1.535L5.805,3.128 M5.091,1L3.635,11.467l9.638-2.285L5.091,1L5.091,1z"></path>
        </g>
    </g>
</svg>