<svg version="1.1" xmlns="http://www.w3.org/2000/svg" xmlns:xlink="http://www.w3.org/1999/xlink" viewBox="0 0 80 80" style="enable-background:new 0 0 80 80;" xml:space="preserve">
    <g>
        <path style="fill:#8BB7F0;" d="M40,77.5C19.322,77.5,2.5,60.678,2.5,40S19.322,2.5,40,2.5S77.5,19.322,77.5,40S60.678,77.5,40,77.5z"></path>
        <path style="fill:#4E7AB5;" d="M40,3c20.402,0,37,16.598,37,37S60.402,77,40,77S3,60.402,3,40S19.598,3,40,3 M40,2C19.013,2,2,19.013,2,40s17.013,38,38,38s38-17.013,38-38S60.987,2,40,2L40,2z"></path>
    </g>
    <g>
        <polygon style="fill:#FFFFFF;" points="14.732,40 29.5,26.154 29.5,35.5 63.5,35.5 63.5,44.5 29.5,44.5 29.5,53.846 	"></polygon>
        <path style="fill:#4E7AB5;" d="M29,27.308V35v1h1h33v8H30h-1v1v7.692L15.462,40L29,27.308 M30,25L14,40l16,15V45h34V35H30V25L30,25z"></path>
    </g>
    <g>
        <path style="fill:#8BB7F0;" d="M40,77.5C19.322,77.5,2.5,60.678,2.5,40S19.322,2.5,40,2.5S77.5,19.322,77.5,40S60.678,77.5,40,77.5z"></path>
        <path style="fill:#4E7AB5;" d="M40,3c20.402,0,37,16.598,37,37S60.402,77,40,77S3,60.402,3,40S19.598,3,40,3 M40,2C19.013,2,2,19.013,2,40s17.013,38,38,38s38-17.013,38-38S60.987,2,40,2L40,2z"></path>
    </g>
    <g>
        <polygon style="fill:#FFFFFF;" points="14.731,40 29.5,26.154 29.5,35.5 63.5,35.5 63.5,44.5 29.5,44.5 29.5,53.846 	"></polygon>
        <path style="fill:#4E7AB5;" d="M29,27.308V35v1h1h33v8H30h-1v1v7.692L15.462,40L29,27.308 M30,25L14,40l16,15V45h34V35H30V25L30,25z"></path>
    </g>
</svg>