<svg version="1.1" xmlns="http://www.w3.org/2000/svg" xmlns:xlink="http://www.w3.org/1999/xlink" viewBox="0 0 80 80" style="enable-background:new 0 0 80 80;" xml:space="preserve">
    <g>
        <path style="fill:#978bf0;" d="M3.5,73.5v-66h73v66H3.5z M67.5,70.5h6v-6h-6V70.5z M6.5,70.5h6v-6h-6V70.5z M67.5,61.5h6v-6h-6V61.5z M6.5,61.5h6v-6h-6V61.5z M67.5,52.5h6v-6h-6V52.5z M6.5,52.5h6v-6h-6V52.5z M67.5,43.5h6v-6h-6V43.5z M6.5,43.5h6v-6h-6V43.5z M67.5,34.5h6v-6h-6V34.5z M6.5,34.5h6v-6h-6V34.5z M67.5,25.5h6v-6h-6V25.5z M6.5,25.5h6v-6h-6V25.5z M67.5,16.5h6v-6h-6V16.5z M6.5,16.5h6v-6h-6V16.5z"></path>
        <path style="fill:#5a4eb5;" d="M76,8v65H4V8H76 M67,17h1h5h1v-1v-5v-1h-1h-5h-1v1v5V17 M6,17h1h5h1v-1v-5v-1h-1H7H6v1v5V17 M67,26h1h5h1v-1v-5v-1h-1h-5h-1v1v5V26 M6,26h1h5h1v-1v-5v-1h-1H7H6v1v5V26 M67,35h1h5h1v-1v-5v-1h-1h-5h-1v1v5V35 M6,35h1h5h1v-1v-5v-1h-1H7H6v1v5V35 M67,44h1h5h1v-1v-5v-1h-1h-5h-1v1v5V44 M6,44h1h5h1v-1v-5v-1h-1H7H6v1v5V44 M67,53h1h5h1v-1v-5v-1h-1h-5h-1v1v5V53 M6,53h1h5h1v-1v-5v-1h-1H7H6v1v5V53 M67,62h1h5h1v-1v-5v-1h-1h-5h-1v1v5V62 M6,62h1h5h1v-1v-5v-1h-1H7H6v1v5V62 M67,71h1h5h1v-1v-5v-1h-1h-5h-1v1v5V71 M6,71h1h5h1v-1v-5v-1h-1H7H6v1v5V71 M77,7H3v67h74V7L77,7z M68,16v-5h5v5H68L68,16z M7,16v-5h5v5H7L7,16z M68,25v-5h5v5H68L68,25z M7,25v-5h5v5H7L7,25z M68,34v-5h5v5H68L68,34z M7,34v-5h5v5H7L7,34z M68,43v-5h5v5H68L68,43z M7,43v-5h5v5H7L7,43z M68,52v-5h5v5H68L68,52z M7,52v-5h5v5H7L7,52z M68,61v-5h5v5H68L68,61z M7,61v-5h5v5H7L7,61z M68,70v-5h5v5H68L68,70z M7,70v-5h5v5H7L7,70z"></path>
    </g>
    <g>
        <polygon style="fill:#FFFFFF;" points="32.5,28.921 51.083,41 32.5,53.079 	"></polygon>
        <path style="fill:#FFFFFF;" d="M33,29.843L50.165,41L33,52.157V29.843 M32,28v26l20-13L32,28L32,28z"></path>
    </g>
</svg>