<svg version="1.1" id="Layer_1" xmlns="http://www.w3.org/2000/svg" xmlns:xlink="http://www.w3.org/1999/xlink" x="0px" y="0px" viewBox="0 0 80 80" style="enable-background:new 0 0 80 80;" xml:space="preserve">
    <g>
        <g>
            <polygon style="fill:#FFEEA3;" points="24.008,59.617 2.5,66.32 2.5,10.225 23.992,3.526 43.992,10.383 65.5,3.68 65.5,59.775 44.008,66.474"></polygon>
        </g>
        <g>
            <path style="fill:#BA9B48;" d="M23.985,4.052l19.69,6.751l0.31,0.106l0.312-0.097L65,4.359v55.048l-20.985,6.541l-19.69-6.751l-0.31-0.106l-0.312,0.097L3,65.641V10.593L23.985,4.052 M66,3L44,9.857L24,3L2,9.857V67l22-6.857L44,67l22-6.857V3L66,3z"></path>
        </g>
    </g>
    <path style="fill:#FFFFFF;" d="M44,65.948l-20-6.877V4.049l20,6.849V65.948z"></path>
    <g>
        <path style="fill:#8BB7F0;" d="M48,78.5c-16.267,0-29.5-13.233-29.5-29.5S31.733,19.5,48,19.5S77.5,32.733,77.5,49S64.267,78.5,48,78.5z"></path>
        <g>
            <path style="fill:#4E7AB5;" d="M48,20c15.991,0,29,13.009,29,29S63.991,78,48,78S19,64.991,19,49S32.009,20,48,20 M48,19c-16.569,0-30,13.431-30,30s13.431,30,30,30s30-13.431,30-30S64.569,19,48,19L48,19z"></path>
        </g>
    </g>
    <g>
        <path style="fill:#FFFFFF;" d="M48,72.5c-12.958,0-23.5-10.542-23.5-23.5S35.042,25.5,48,25.5S71.5,36.042,71.5,49S60.958,72.5,48,72.5z"></path>
        <g>
            <path style="fill:#4E7AB5;" d="M48,26c12.682,0,23,10.318,23,23S60.682,72,48,72S25,61.682,25,49S35.318,26,48,26 M48,25c-13.255,0-24,10.745-24,24s10.745,24,24,24s24-10.745,24-24S61.255,25,48,25L48,25z"></path>
        </g>
    </g>
    <polyline style="fill:none;stroke:#66798F;stroke-width:2;stroke-linecap:round;stroke-miterlimit:10;" points="58.542,33.423 48,49 56.811,57.811 "></polyline>
    <g>
        <circle style="fill:#66798F;" cx="48" cy="49" r="3"></circle>
    </g>
</svg>