<svg version="1.1" xmlns="http://www.w3.org/2000/svg" xmlns:xlink="http://www.w3.org/1999/xlink" viewBox="0 0 80 80" style="enable-background:new 0 0 80 80;" xml:space="preserve">
    <g>
        <g>
            <polygon style="fill:#B0C1D4;" points="12.5,69.5 12.5,66.41 21.5,64.61 21.5,15.5 7.461,15.5 4.661,22.5 2.5,22.5 2.5,11.5 49.5,11.5 49.5,22.5 47.339,22.5 44.539,15.5 30.5,15.5 30.5,64.61 39.5,66.41 39.5,69.5 		"></polygon>
        </g>
        <g>
            <path style="fill:#66798F;" d="M49,12v1v3v6h-1.323l-2.549-6.371L44.877,15H44.2H31h-1v1v48.2v0.82l0.804,0.161L39,66.82V69h-8H21h-8v-2.18l8.196-1.639L22,65.02V64.2V16v-1h-1H7.8H7.123l-0.251,0.629L4.323,22H3v-6v-3v-1H49 M50,11H2v2v3v7h3l2.8-7H21v48.2L12,66v4h9h10h9v-4l-9-1.8V16h13.2l2.8,7h3v-7v-3V11L50,11z"></path>
        </g>
    </g>
    <g>
        <g>
            <polygon style="fill:#8BB7F0;" points="55.957,58.5 64.25,58.5 64.25,21.5 55.957,21.5 66.75,10.707 77.543,21.5 69.25,21.5 69.25,58.5 77.543,58.5 66.75,69.293"></polygon>
        </g>
        <g>
            <path style="fill:#4E7AB5;" d="M66.75,11.414L76.336,21H69.75h-1v1v36v1h1h6.586l-9.586,9.586L57.164,59h6.586h1v-1V22v-1h-1h-6.586L66.75,11.414 M66.75,10l-12,12h9v36h-9l12,12l12-12h-9V22h9L66.75,10L66.75,10z"></path>
        </g>
    </g>
</svg>