<svg version="1.1" id="Layer_1" xmlns="http://www.w3.org/2000/svg" xmlns:xlink="http://www.w3.org/1999/xlink" x="0px" y="0px" viewBox="0 0 80 80" style="enable-background:new 0 0 80 80;" xml:space="preserve">
    <g>
        <path style="fill:#8BB7F0;" d="M40,77.5c-11.188,0-21.349-4.907-28.612-13.816l-0.35-0.429L2.5,71.793V45.5h25.377l-8.519,9.466l0.236,0.328C24.226,61.685,31.854,65.5,40,65.5c10.095,0,19.646-6.973,23.351-17h13.023C72.398,65.341,57.201,77.5,40,77.5z"></path>
        <g>
            <path style="fill:#4E7AB5;" d="M26.755,46l-7.498,8.331l-0.541,0.601l0.474,0.655C23.915,62.107,31.694,66,40,66c10.191,0,19.836-6.956,23.697-17h12.039c-1.948,7.657-6.336,14.589-12.45,19.63C56.737,74.027,48.468,77,40,77c-11.034,0-21.058-4.841-28.225-13.632l-0.699-0.858l-0.783,0.783L3,70.586V46H26.755 M29,45H2v28l9-9c6.962,8.539,17.121,14,29,14c18.189,0,33.269-12.93,37-30H63c-3.357,9.482-12.368,17-23,17c-8.135,0-15.567-3.882-20-10L29,45L29,45z"></path>
        </g>
    </g>
    <g>
        <path style="fill:#8BB7F0;" d="M52.123,34.5l8.519-9.466l-0.236-0.328C55.774,18.315,48.146,14.5,40,14.5c-10.095,0-19.646,6.973-23.351,17H3.626C7.602,14.659,22.799,2.5,40,2.5c11.187,0,21.349,4.907,28.612,13.816l0.35,0.429L77.5,8.207V34.5H52.123z"></path>
        <g>
            <path style="fill:#4E7AB5;" d="M40,3c11.034,0,21.058,4.841,28.225,13.632l0.699,0.858l0.783-0.783L77,9.414V34H53.245l7.498-8.331l0.541-0.601l-0.474-0.655C56.085,17.893,48.306,14,40,14c-10.191,0-19.836,6.956-23.697,17H4.264c1.948-7.657,6.336-14.589,12.45-19.63C23.263,5.973,31.532,3,40,3 M40,2C21.811,2,6.731,14.93,3,32h14c3.357-9.482,12.368-17,23-17c8.135,0,15.567,3.882,20,10l-9,10h27V7l-9,9C62.038,7.461,51.879,2,40,2L40,2z"></path>
        </g>
    </g>
</svg>