<svg version="1.1" id="Layer_1" xmlns="http://www.w3.org/2000/svg" xmlns:xlink="http://www.w3.org/1999/xlink" x="0px" y="0px" viewBox="0 0 80 80" style="enable-background:new 0 0 80 80;" xml:space="preserve">
    <g>
        <g>
            <path style="fill:#B0C1D4;" d="M8.749,71.632l6.362-12.471L2.652,49.863C3.97,47.714,12.189,36.5,40,36.5
                c27.88,0,36.043,11.213,37.35,13.361l-12.461,9.3l6.362,12.471L40,77.491L8.749,71.632z"></path>
        </g>
    </g>
    <path style="fill:#36404D;" d="M40,76c0,0-16-6.238-16-16c0-2.466,0-18.653,0-18.653h32c0,0,0,16.257,0,18.653
        C56,69.862,40,76,40,76z"></path>
    <g>
        <g>
            <path style="fill:#DEB974;" d="M56.8,48.3c-3.694,0-6.699-3.006-6.699-6.7S53.105,34.9,56.8,34.9c4.759,0,6.7,1.246,6.7,4.3
                C63.5,42.794,60.498,48.3,56.8,48.3z M23.2,48.3c-3.698,0-6.7-5.506-6.7-9.1c0-3.054,1.941-4.3,6.7-4.3
                c3.694,0,6.7,3.005,6.7,6.699S26.895,48.3,23.2,48.3z"></path>
        </g>
    </g>
    <g>
        <g>
            <path style="fill:#F5CE85;" d="M40,69.5c-2.286,0-4.42-1.028-5.855-2.821l-0.093-0.116l-0.142-0.046
                C25.889,63.879,20.5,56.438,20.5,48V35.966c0-4.979,4.052-9.031,9.032-9.031h20.937c4.979,0,9.031,4.052,9.031,9.031V48
                c0,8.438-5.389,15.879-13.41,18.517l-0.142,0.046l-0.093,0.116C44.421,68.472,42.287,69.5,40,69.5z"></path>
        </g>
    </g>
    <path style="fill:none;stroke:#36404D;stroke-miterlimit:10;" d="M34.572,43.167c0,0,2.2-1.81,5.429-1.81
        c3.228,0,5.429,1.81,5.429,1.81"></path>
    <g>
        <path style="fill:#36404D;" d="M56.5,38h-12c-1.105,0-2,0.895-2,2v4c0,3.314,2.686,6,6,6h2c3.314,0,6-2.686,6-6V38z"></path>
    </g>
    <g>
        <path style="fill:#36404D;" d="M35.5,38h-12v6c0,3.314,2.686,6,6,6h2c3.314,0,6-2.686,6-6v-4C37.5,38.895,36.605,38,35.5,38z"></path>
    </g>
    <g>
        <path style="fill:#A6714E;" d="M59.5,43.5V28c0-0.24-0.012-0.483-0.035-0.729c0.867,0.312,1.559,0.644,2.034,0.978
            c-0.03,7.721-1.485,13.752-1.881,15.251H59.5z M20.369,43.5c-0.402-1.37-1.83-6.814-1.868-15.159
            c1.411-0.543,2.978-1.026,4.678-1.446C21.418,28.674,20.5,31.092,20.5,34v9.5H20.369z M58.146,25.814
            c-4.214-1.149-10.533-1.827-17.171-1.827c-0.865,0-1.725,0.011-2.577,0.034c7.691-1.453,10.888-5.804,11.781-7.306
            C51.711,17.751,56.763,21.435,58.146,25.814z"></path>
        <g>
            <path style="fill:#7A4F34;" d="M50.322,17.421c1.7,1.199,5.49,4.159,7.02,7.671c-3.948-0.948-9.39-1.526-15.149-1.598
                C46.906,21.749,49.317,18.923,50.322,17.421 M21.792,27.779C20.611,29.478,20,31.577,20,34v5.681
                c-0.473-2.567-0.954-6.3-0.997-10.996C19.876,28.361,20.808,28.058,21.792,27.779 M60,28.016c0.432,0.183,0.756,0.353,0.998,0.502
                c-0.036,4.331-0.52,8.113-0.998,10.821V28.016 M50,16c0,0-3.707,8-17,8c-2.829,0-5.626,0.574-7.807,1.93
                c4.976-1.011,10.517-1.444,15.782-1.444c7.19,0,13.865,0.807,17.875,2.053C57.678,20.732,50,16,50,16L50,16z M25.193,25.93
                C22.602,26.457,20.165,27.14,18,28c0,10.087,2,16,2,16h1c0,0,0-7.224,0-10C21,30.071,22.692,27.486,25.193,25.93L25.193,25.93z
                M58.851,26.539C58.948,27.02,59,27.507,59,28c0,3.053,0,16,0,16h1c0,0,2-6.808,2-16C61.342,27.47,60.261,26.977,58.851,26.539
                L58.851,26.539z"></path>
        </g>
    </g>
    <g>
        <path style="fill:#B0C1D4;" d="M40,41.505C19.671,41.505,2.495,36.236,2.495,30S19.671,18.495,40,18.495S77.505,23.764,77.505,30
            S60.329,41.505,40,41.505z"></path>
    </g>
    <g>
        <path style="fill:#B0C1D4;" d="M40,33.501c-9.202,0-21.428-0.694-21.501-6.678c2.17-9.709,5.449-24.324,12.151-24.324
            c1.837,0,3.133,0.471,4.504,0.97c1.393,0.507,2.833,1.03,4.846,1.03c2.047,0,3.561-0.537,5.023-1.057
            c1.367-0.485,2.658-0.943,4.327-0.943c5.954,0,8.756,11.008,11.465,21.654c0.229,0.896,0.456,1.791,0.686,2.678
            C61.412,33.502,46.958,33.501,40,33.501z"></path>
    </g>
</svg>