<svg xmlns="http://www.w3.org/2000/svg" viewBox="0 0 26 26" enable-background="new 0 0 26 26">
    <path fill="white" d="M 13 1 C 10.497101 1 8.1966473 1.7698164 6.34375 2.96875 A 1.0001 1.0001 0 0 0 5.9375 4.125 C 5.9953363 4.2985089 6 4.3 6 4.5 C 6 5.3761905 5.3761905 6 4.5 6 C 4.3 6 4.2985089 5.9953363 4.125 5.9375 A 1.0001 1.0001 0 0 0 2.96875 6.34375 C 1.7698164 8.1966473 1 10.497101 1 13 C 1 19.635519 6.3644809 25 13 25 C 18.881481 25 23.797273 20.763369 24.78125 15.1875 A 1.0001 1.0001 0 0 0 24.5 14.28125 C 24.188562 13.969812 24 13.55 24 13 C 24 12.45 24.188562 12.030188 24.5 11.71875 A 1.0001 1.0001 0 0 0 24.78125 10.8125 C 23.6932 5.2634427 18.881481 1 13 1 z M 13 3 C 13.299957 3 13.582885 3.0053213 13.875 3.03125 C 14.845078 3.9877112 15.65888 5.0778846 16.3125 6.3125 C 16.6125 6.1125 17.1 6 17.5 6 C 18.9 6 20 7.1 20 8.5 C 20 9.8 19.1125 10.8 17.8125 11 C 17.9125 11.7 18 12.3 18 13 C 18 16.9375 16.389453 20.418945 13.84375 22.96875 C 13.561228 22.993046 13.289237 23 13 23 C 7.4355191 23 3 18.564481 3 13 C 3 11.120876 3.5481949 9.4213655 4.375 7.96875 C 4.4050507 7.9692572 4.4754039 8 4.5 8 C 6.4238095 8 8 6.4238095 8 4.5 C 8 4.4754039 7.9692572 4.4050507 7.96875 4.375 C 9.4213655 3.5481949 11.120876 3 13 3 z M 11.625 7.25 C 10.482031 7.2199219 9.35625 7.95625 9.09375 9.09375 C 8.79375 10.39375 9.60625 11.79375 10.90625 12.09375 C 11.20625 12.19375 11.60625 12.19375 11.90625 12.09375 C 11.10625 11.49375 10.7 10.49375 11 9.59375 C 11.2 8.59375 12 7.9125 13 7.8125 C 12.7 7.6125 12.49375 7.4125 12.09375 7.3125 C 11.93125 7.275 11.788281 7.2542969 11.625 7.25 z M 7.34375 14 C 7.20625 14.0125 7.05625 14.04375 6.90625 14.09375 C 6.10625 14.39375 5.7 15.3 6 16 C 6.3 16.8 7.20625 17.20625 7.90625 16.90625 C 8.20625 16.80625 8.4 16.60625 8.5 16.40625 C 8.1 16.40625 7.7 16 7.5 15.5 C 7.3 15 7.3875 14.4 7.6875 14 C 7.5875 14 7.48125 13.9875 7.34375 14 z M 19.8125 16 L 20 16 C 20.8 16.4 21.2 17.3 21 18 C 20.7 18.8 19.89375 19.20625 19.09375 18.90625 C 18.99375 18.90625 19.00625 18.9125 18.90625 18.8125 C 19.40625 18.6125 19.8 18.19375 20 17.59375 C 20.2 16.99375 20.1125 16.5 19.8125 16 z M 11.8125 16.8125 C 11.5125 16.8125 11.1125 16.89375 10.8125 17.09375 C 9.9125 17.69375 9.6125 19.00625 10.3125 19.90625 C 10.9125 20.80625 12.19375 21.10625 13.09375 20.40625 C 13.39375 20.20625 13.6125 19.89375 13.8125 19.59375 C 13.1125 19.69375 12.30625 19.4125 11.90625 18.8125 C 11.50625 18.2125 11.5125 17.4125 11.8125 16.8125 z"></path>
</svg>