<svg xmlns="http://www.w3.org/2000/svg" xmlns:xlink="http://www.w3.org/1999/xlink" version="1.1" viewBox="0 0 48 48" enable-background="new 0 0 48 48" xml:space="preserve" width="528" height="528">
    <path fill="#4CAF50" d="M24,7C14.059,7,6,15.096,6,25.083C6,32.819,10.838,39.417,17.639,42l3.927-10.444  C18.902,30.566,17,28.009,17,25c0-3.866,3.134-7,7-7c3.866,0,7,3.134,7,7c0,3.009-1.902,5.566-4.565,6.556L30.361,42  C37.162,39.417,42,32.819,42,25.083C42,15.096,33.941,7,24,7z"></path>
    <path fill="none" stroke="#2E7D32" stroke-width="0.5" stroke-miterlimit="10" d="M24,7C14.059,7,6,15.096,6,25.083  C6,32.819,10.838,39.417,17.639,42l3.927-10.444C18.902,30.566,17,28.009,17,25c0-3.866,3.134-7,7-7c3.866,0,7,3.134,7,7  c0,3.009-1.902,5.566-4.565,6.556L30.361,42C37.162,39.417,42,32.819,42,25.083C42,15.096,33.941,7,24,7z"></path>
</svg>