<svg xmlns="http://www.w3.org/2000/svg" viewBox="0 0 26 26" enable-background="new 0 0 26 26">
    <path fill="white" d="M 16.4375 0 C 13.635767 0.10217285 10.08125 1.525 6.3125 5.40625 C -1.3875 13.30625 0.09375 19.59375 0.09375 19.59375 C 0.09375 19.59375 -0.70625 14.09375 6.59375 6.59375 C 10.39375 2.69375 15.1 1.4125 18 4.3125 C 20.6 6.9125 20.2125 11.3125 15.8125 15.8125 C 14.1125 17.4125 12.29375 15.99375 14.09375 14.09375 C 14.294255 13.893245 14.470086 13.694929 14.625 13.5 C 16.298673 11.529336 17.587381 8.4936308 15.59375 6.5 C 13.19375 4 9.1125 6.9125 7.3125 8.8125 C 1.6125 14.7125 1.4875 21.00625 4.6875 24.40625 C 6.8875 26.60625 12.89375 27.4875 19.59375 20.6875 C 27.29375 12.7875 25.8125 6.5 25.8125 6.5 C 25.8125 6.5 26.6125 12 19.3125 19.5 C 15.5125 23.4 10.80625 24.7125 7.90625 21.8125 C 5.30625 19.2125 5.69375 14.8125 10.09375 10.3125 C 11.89375 8.6125 13.70625 10.00625 11.90625 11.90625 C 11.705745 12.106755 11.529914 12.305071 11.375 12.5 C 9.7013268 14.470664 8.4126192 17.506369 10.40625 19.5 C 12.80625 22 16.7875 18.9875 18.6875 17.1875 C 24.4875 11.2875 24.5125 4.99375 21.3125 1.59375 C 20.35 0.63125 18.616626 -0.079467773 16.4375 0 z"></path>
</svg>