<svg xmlns="http://www.w3.org/2000/svg" viewBox="0 0 26 26" enable-background="new 0 0 26 26">
    <path fill="white" style="text-indent:0;text-align:start;line-height:normal;text-transform:none;block-progression:tb;-inkscape-font-specification:Bitstream Vera Sans" d="M 13 3 C 7.7288115 3 3.3986522 7.1014167 3.03125 12.28125 C 0.44532421 15.083483 -0.6214395 17.902917 0.59375 19.8125 C 1.6848977 21.650222 4.5139522 22.211418 8.03125 21.65625 C 9.4983009 22.502438 11.189342 23 13 23 C 18.24976 23 22.539504 18.931287 22.9375 13.78125 C 25.568733 10.942159 26.680515 7.9882353 25.5 6 C 24.359533 4.1577072 21.449222 3.5307275 17.78125 4.21875 C 17.773495 4.2145035 17.757767 4.2229765 17.75 4.21875 C 16.333226 3.4477969 14.722188 3 13 3 z M 13 5 C 16.38075 5 19.262912 7.0775231 20.4375 10.03125 C 19.471472 11.830095 17.356191 13.84487 14.59375 15.40625 C 11.59353 17.065946 8.5567905 17.799779 6.4375 17.5625 C 5.5371502 16.268022 5 14.702178 5 13 C 5 8.5698774 8.5698774 5 13 5 z M 20.375 16.125 C 19.16331 18.997986 16.322592 21 13 21 C 12.456638 21 11.918731 20.946157 11.40625 20.84375 C 13.085938 20.303125 14.84375 19.54375 16.59375 18.59375 C 17.98409 17.837242 19.245263 17.010263 20.375 16.125 z" color="#000" overflow="visible" enable-background="accumulate" font-family="Bitstream Vera Sans"></path>
</svg>