<svg version="1.1" id="Layer_1" xmlns="http://www.w3.org/2000/svg" xmlns:xlink="http://www.w3.org/1999/xlink" x="0px" y="0px" viewBox="0 0 80 80" style="enable-background:new 0 0 80 80;" xml:space="preserve">
<g>
	<g>
		<path style="fill:#F5CE85;" d="M2.566,71.726l2.941-9.535L28.89,38.809l-0.829-0.83c-0.932-0.931-1.444-2.168-1.444-3.485
			s0.513-2.554,1.443-3.485l1.754-1.754l-0.025-0.238c-0.098-0.907-0.146-1.754-0.146-2.588C29.643,13.234,40.377,2.5,53.571,2.5
			c0.225,0,0.452,0.003,0.679,0.01c12.47,0.344,22.896,10.77,23.24,23.239c0.181,6.525-2.222,12.691-6.765,17.362
			c-4.545,4.673-10.637,7.246-17.154,7.246c-0.838,0-1.684-0.047-2.588-0.145l-0.238-0.026l-1.754,1.754
			c-0.931,0.931-2.168,1.444-3.484,1.444s-2.555-0.513-3.485-1.443l-0.83-0.83l-4.39,4.39H29.5v7.301L26.802,65.5H19.5v7.301
			l-1.71,1.71l-9.514,2.922L2.566,71.726z M53.941,11.5c-3.89,0-7.545,1.514-10.295,4.264l-0.354,0.354l20.589,20.589l0.354-0.354
			c5.677-5.676,5.677-14.913,0-20.589C61.485,13.014,57.83,11.5,53.941,11.5z"></path>
	</g>
</g>
<rect x="6.613" y="54.398" transform="matrix(0.7071 -0.7071 0.7071 0.7071 -32.262 31.9096)" style="fill:#DBB065;" width="31.549" height="1"></rect>
</svg>