<svg version="1.1" xmlns="http://www.w3.org/2000/svg" xmlns:xlink="http://www.w3.org/1999/xlink" viewBox="0 0 80 80" style="enable-background:new 0 0 80 80;" xml:space="preserve">
    <g>
        <g>
            <path style="fill:#8BB7F0;" d="M40,70.5c-1.554,0-3.045-0.668-4.091-1.834L35.761,68.5H2.667c-1.195,0-2.167-0.972-2.167-2.167V15.667c0-1.195,0.972-2.167,2.167-2.167h74.666c1.195,0,2.167,0.972,2.167,2.167v50.666c0,1.195-0.972,2.167-2.167,2.167H44.239l-0.148,0.166C43.045,69.832,41.554,70.5,40,70.5z"></path>
        </g>
        <g>
            <path style="fill:#4E7AB5;" d="M77.333,14C78.252,14,79,14.748,79,15.667v50.667C79,67.252,78.252,68,77.333,68h-32.87h-0.446l-0.298,0.332C42.768,69.392,41.413,70,40,70s-2.768-0.608-3.719-1.668L35.983,68h-0.446H2.667C1.748,68,1,67.252,1,66.333V15.667C1,14.748,1.748,14,2.667,14H77.333 M77.333,13H2.667C1.194,13,0,14.194,0,15.667v50.667C0,67.806,1.194,69,2.667,69h32.87c1.099,1.225,2.688,2,4.463,2s3.365-0.775,4.463-2h32.87C78.806,69,80,67.806,80,66.333V15.667C80,14.194,78.806,13,77.333,13L77.333,13z"></path>
        </g>
    </g>
    <g>
        <path style="fill:#FFFFFF;" d="M38.473,66.5c-0.25-2.247-2.16-4-4.473-4H4.5v-55h30.167c2.681,0,4.938,2.476,4.961,2.501L40,10.414l0.372-0.413c0.022-0.025,2.28-2.501,4.961-2.501H75.5v55H46c-2.313,0-4.223,1.753-4.473,4H38.473z"></path>
        <path style="fill:#788B9C;" d="M75,8v54H46c-2.415,0-4.435,1.721-4.9,4H38.9c-0.465-2.279-2.485-4-4.9-4H5V8h29.667c2.451,0,4.569,2.312,4.588,2.334L40,11.166l0.745-0.832C40.766,10.31,42.903,8,45.333,8H75 M76,7H45.333C42.388,7,40,9.667,40,9.667S37.612,7,34.667,7H4v56h30c2.209,0,4,1.791,4,4h4c0-2.209,1.791-4,4-4h30V7L76,7z"></path>
    </g>
    <path style="fill:#E1EBF2;" d="M45.333,8c-2.431,0-4.567,2.31-4.588,2.334L40,11.166V66h1.1c0.465-2.279,2.485-4,4.9-4h29V8H45.333z"></path>
    <rect x="12" y="33" style="fill:#66798F;" width="12" height="1"></rect>
    <rect x="12" y="17" style="fill:#66798F;" width="12" height="1"></rect>
    <rect x="12" y="25" style="fill:#66798F;" width="12" height="1"></rect>
    <rect x="12" y="41" style="fill:#66798F;" width="12" height="1"></rect>
    <rect x="12" y="49" style="fill:#66798F;" width="12" height="1"></rect>
    <rect x="32" y="33" style="fill:#66798F;" width="2" height="1"></rect>
    <rect x="32" y="17" style="fill:#66798F;" width="2" height="1"></rect>
    <rect x="32" y="25" style="fill:#66798F;" width="2" height="1"></rect>
    <rect x="32" y="41" style="fill:#66798F;" width="2" height="1"></rect>
    <rect x="28" y="17" style="fill:#66798F;" width="2" height="1"></rect>
    <rect x="28" y="25" style="fill:#66798F;" width="2" height="1"></rect>
    <rect x="28" y="41" style="fill:#66798F;" width="2" height="1"></rect>
    <rect x="32" y="49" style="fill:#66798F;" width="2" height="1"></rect>
    <rect x="46" y="33" style="fill:#66798F;" width="12" height="1"></rect>
    <rect x="46" y="17" style="fill:#66798F;" width="12" height="1"></rect>
    <rect x="46" y="25" style="fill:#66798F;" width="12" height="1"></rect>
    <rect x="66" y="33" style="fill:#66798F;" width="2" height="1"></rect>
    <rect x="66" y="17" style="fill:#66798F;" width="2" height="1"></rect>
    <rect x="66" y="25" style="fill:#66798F;" width="2" height="1"></rect>
    <rect x="62" y="17" style="fill:#66798F;" width="2" height="1"></rect>
    <rect x="62" y="25" style="fill:#66798F;" width="2" height="1"></rect>
</svg>