<svg version="1.1" xmlns="http://www.w3.org/2000/svg" xmlns:xlink="http://www.w3.org/1999/xlink" viewBox="0 0 80 80" style="enable-background:new 0 0 80 80;" xml:space="preserve">
    <g>
        <g>
            <polygon style="fill:#B0C1D4;" points="12.5,66.5 12.5,63.528 19.5,61.778 19.5,15.5 6.728,15.5 4.628,22.5 2.5,22.5 2.5,11.5 45.5,11.5 45.5,22.5 43.372,22.5 41.272,15.5 28.5,15.5 28.5,61.778 35.5,63.528 35.5,66.5 		"></polygon>
        </g>
        <g>
            <path style="fill:#66798F;" d="M45,12v1v3v6h-1.256l-1.886-6.287L41.644,15H40.9H29h-1v1v45.388v0.781l0.757,0.189L35,63.919V66H13v-2.081l6.243-1.561L20,62.169v-0.781V16v-1h-1H7.1H6.356l-0.214,0.713L4.256,22H3v-6v-3v-1H45 M46,11H2v2v3v7h3l2.1-7H19v45.388l-7,1.75V67h24v-3.862l-7-1.75V16h11.9l2.1,7h3v-7v-3V11L46,11z"></path>
        </g>
    </g>
    <g>
        <g>
            <polygon style="fill:#B0C1D4;" points="52.5,66.5 52.5,63.498 58.5,61.498 58.5,34.5 50.903,34.5 48.653,40.5 46.5,40.5 46.5,31.5 77.5,31.5 77.5,40.5 75.347,40.5 73.097,34.5 65.5,34.5 65.5,61.498 71.5,63.498 71.5,66.5 		"></polygon>
        </g>
        <g>
            <path style="fill:#66798F;" d="M77,32v1v2v5h-1.307l-2.007-5.351L73.443,34H72.75H66h-1v1v26.138v0.721l0.684,0.228L71,63.859V66H53v-2.141l5.316-1.772L59,61.859v-0.721V35v-1h-1h-6.75h-0.693l-0.243,0.649L48.307,40H47v-5v-2v-1H77 M78,31H46v2v2v6h3l2.25-6H58v26.138l-6,2V67h20v-3.862l-6-2V35h6.75L75,41h3v-6v-2V31L78,31z"></path>
        </g>
    </g>
</svg>