<svg version="1.1" xmlns="http://www.w3.org/2000/svg" xmlns:xlink="http://www.w3.org/1999/xlink" viewBox="0 0 80 80" style="enable-background:new 0 0 80 80;" xml:space="preserve">
    <g>
        <g>
            <polygon style="fill:#B0C1D4;" points="50.5,65.5 50.5,63.44 56.5,61.44 56.5,17.5 45.052,17.5 43.623,22.5 41.5,22.5 41.5,14.5 78.5,14.5 78.5,22.5 76.377,22.5 74.948,17.5 63.5,17.5 63.5,61.44 69.5,63.44 69.5,65.5 		"></polygon>
        </g>
        <g>
            <path style="fill:#66798F;" d="M78,15v1v2v4h-1.246l-1.221-4.275L75.326,17h-0.754H64h-1v1v43.079V61.8l0.684,0.228L69,63.8V65h-5h-8h-5v-1.2l5.316-1.772L57,61.8v-0.721V18v-1h-1H45.429h-0.754l-0.207,0.725L43.246,22H42v-4v-2v-1H78 M79,14H41v2v2v5h3l1.429-5H56v43.079l-6,2V66h6h8h6v-2.921l-6-2V18h10.571L76,23h3v-5v-2V14L79,14z"></path>
        </g>
    </g>
    <g>
        <g>
            <polygon style="fill:#B0C1D4;" points="10.5,65.5 10.5,63.44 16.5,61.44 16.5,17.5 5.052,17.5 3.623,22.5 1.5,22.5 1.5,14.5 38.5,14.5 38.5,22.5 36.377,22.5 34.948,17.5 23.5,17.5 23.5,61.44 29.5,63.44 29.5,65.5 		"></polygon>
        </g>
        <g>
            <path style="fill:#66798F;" d="M38,15v1v2v4h-1.246l-1.221-4.275L35.326,17h-0.754H24h-1v1v43.079V61.8l0.684,0.228L29,63.8V65h-5h-8h-5v-1.2l5.316-1.772L17,61.8v-0.721V18v-1h-1H5.429H4.674l-0.207,0.725L3.246,22H2v-4v-2v-1H38 M39,14H1v2v2v5h3l1.429-5H16v43.079l-6,2V66h6h8h6v-2.921l-6-2V18h10.571L36,23h3v-5v-2V14L39,14z"></path>
        </g>
    </g>
</svg>