<svg version="1.1" xmlns="http://www.w3.org/2000/svg" xmlns:xlink="http://www.w3.org/1999/xlink" viewBox="0 0 80 80" style="enable-background:new 0 0 80 80;" xml:space="preserve">
    <g>
        <rect x="59" y="56.5" style="fill:#BAE0BD;" width="18" height="21"></rect>
        <g>
            <path style="fill:#5E9C76;" d="M76.5,57v20h-17V57H76.5 M77.5,56h-19v22h19V56L77.5,56z"></path>
        </g>
    </g>
    <g>
        <rect x="3" y="56.5" style="fill:#BAE0BD;" width="18" height="21"></rect>
        <g>
            <path style="fill:#5E9C76;" d="M20.5,57v20h-17V57H20.5 M21.5,56h-19v22h19V56L21.5,56z"></path>
        </g>
    </g>
    <g>
        <rect x="31" y="56.5" style="fill:#BAE0BD;" width="18" height="21"></rect>
        <g>
            <path style="fill:#5E9C76;" d="M48.5,57v20h-17V57H48.5 M49.5,56h-19v22h19V56L49.5,56z"></path>
        </g>
    </g>
    <g>
        <rect x="25" y="2.5" style="fill:#8BB7F0;" width="30" height="21"></rect>
        <path style="fill:#4E7AB5;" d="M54.5,3v20h-29V3H54.5 M55.5,2h-31v22h31V2L55.5,2z"></path>
    </g>
    <polygon style="fill:#66798F;" points="12.5,56 12.5,39 67.5,39 67.5,56 68.5,56 68.5,38 11.5,38 11.5,56 "></polygon>
    <rect x="39.5" y="24" style="fill:#66798F;" width="1" height="32"></rect>
</svg>