<svg version="1.1" xmlns="http://www.w3.org/2000/svg" xmlns:xlink="http://www.w3.org/1999/xlink" viewBox="0 0 80 80" style="enable-background:new 0 0 80 80;" xml:space="preserve">
    <g>
        <rect x="2.5" y="52.5" style="fill:#8BB7F0;" width="25" height="25"></rect>
        <g>
            <path style="fill:#4E7AB5;" d="M27,53v24H3V53H27 M28,52H2v26h26V52L28,52z"></path>
        </g>
    </g>
    <g>

        <rect x="55.247" y="5.247" transform="matrix(0.7071 -0.7071 0.7071 0.7071 8.4315 50.3553)" style="fill:#F5CE85;" width="19.506" height="19.506"></rect>
        <g>
            <path style="fill:#967A44;" d="M65,1.914L78.086,15L65,28.086L51.914,15L65,1.914 M65,0.5L50.5,15L65,29.5L79.5,15L65,0.5L65,0.5z"></path>
        </g>
    </g>
    <g>
        <path style="fill:#BAE0BD;" d="M15,27.5C8.107,27.5,2.5,21.893,2.5,15S8.107,2.5,15,2.5S27.5,8.107,27.5,15S21.893,27.5,15,27.5z"></path>
        <g>
            <path style="fill:#5E9C76;" d="M15,3c6.617,0,12,5.383,12,12s-5.383,12-12,12S3,21.617,3,15S8.383,3,15,3 M15,2C7.82,2,2,7.82,2,15s5.82,13,13,13s13-5.82,13-13S22.18,2,15,2L15,2z"></path>
        </g>
    </g>
    <g>
        <path style="fill:#F78F8F;" d="M65,77.5c-6.893,0-12.5-5.607-12.5-12.5S58.107,52.5,65,52.5S77.5,58.107,77.5,65S71.893,77.5,65,77.5z"></path>
        <g>
            <path style="fill:#C74343;" d="M65,53c6.617,0,12,5.383,12,12s-5.383,12-12,12s-12-5.383-12-12S58.383,53,65,53 M65,52c-7.18,0-13,5.82-13,13s5.82,13,13,13s13-5.82,13-13S72.18,52,65,52L65,52z"></path>
        </g>
    </g>
    <rect x="14" y="34" style="fill:#36404D;" width="2" height="14"></rect>
    <polygon style="fill:#36404D;" points="15,31.2 11,36 19,36 "></polygon>
    <rect x="37" y="9" transform="matrix(-1.836970e-16 1 -1 -1.836970e-16 53 -23)" style="fill:#36404D;" width="2" height="12"></rect>
    <polygon style="fill:#36404D;" points="46.8,15 42,11 42,19 "></polygon>
    <rect x="64" y="32" transform="matrix(-1 -1.224647e-16 1.224647e-16 -1 130 78)" style="fill:#36404D;" width="2" height="14"></rect>
    <polygon style="fill:#36404D;" points="65,48.8 69,44 61,44 "></polygon>
</svg>