<svg version="1.1" xmlns="http://www.w3.org/2000/svg" xmlns:xlink="http://www.w3.org/1999/xlink" viewBox="0 0 80 80" style="enable-background:new 0 0 80 80;" xml:space="preserve">
    <g>
        <path style="fill:#B0C1D4;" d="M40,73.5C19.322,73.5,2.5,58.472,2.5,40S19.322,6.5,40,6.5S77.5,21.528,77.5,40S60.678,73.5,40,73.5z"></path>
        <g>
            <path style="fill:#66798F;" d="M40,7c20.402,0,37,14.804,37,33S60.402,73,40,73S3,58.196,3,40S19.598,7,40,7 M40,6C19.013,6,2,21.222,2,40s17.013,34,38,34s38-15.222,38-34S60.987,6,40,6L40,6z"></path>
        </g>
    </g>
</svg>