<svg version="1.1" xmlns="http://www.w3.org/2000/svg" xmlns:xlink="http://www.w3.org/1999/xlink" viewBox="0 0 80 80" style="enable-background:new 0 0 80 80;" xml:space="preserve">
    <g>
        <path style="fill:#B0C1D4;" d="M40,75.5C20.425,75.5,4.5,59.575,4.5,40S20.425,4.5,40,4.5S75.5,20.425,75.5,40S59.575,75.5,40,75.5z"></path>
        <g>
            <path style="fill:#66798F;" d="M40,5c19.299,0,35,15.701,35,35S59.299,75,40,75S5,59.299,5,40S20.701,5,40,5 M40,4C20.118,4,4,20.118,4,40s16.118,36,36,36s36-16.118,36-36S59.882,4,40,4L40,4z"></path>
        </g>
    </g>
</svg>