<svg version="1.1" xmlns="http://www.w3.org/2000/svg" xmlns:xlink="http://www.w3.org/1999/xlink" viewBox="0 0 80 80" style="enable-background:new 0 0 80 80;" xml:space="preserve">
    <g>
        <path style="fill:#BAE0BD;" d="M40,77.5C19.322,77.5,2.5,60.678,2.5,40S19.322,2.5,40,2.5S77.5,19.322,77.5,40S60.678,77.5,40,77.5z"></path>
        <path style="fill:#5E9C76;" d="M40,3c20.402,0,37,16.598,37,37S60.402,77,40,77S3,60.402,3,40S19.598,3,40,3 M40,2C19.013,2,2,19.013,2,40s17.013,38,38,38s38-17.013,38-38S60.987,2,40,2L40,2z"></path>
    </g>
    <g>
        <path style="fill:#BAE0BD;" d="M40,77.5C19.322,77.5,2.5,60.678,2.5,40S19.322,2.5,40,2.5S77.5,19.322,77.5,40S60.678,77.5,40,77.5z"></path>
        <path style="fill:#5E9C76;" d="M40,3c20.402,0,37,16.598,37,37S60.402,77,40,77S3,60.402,3,40S19.598,3,40,3 M40,2C19.013,2,2,19.013,2,40s17.013,38,38,38s38-17.013,38-38S60.987,2,40,2L40,2z"></path>
    </g>
    <g>
        <path style="fill:#8BB7F0;" d="M40.5,39.793v-7.447l36.025-0.876C77.172,34.251,77.5,37.119,77.5,40c0,9.85-3.771,19.12-10.632,26.161L40.5,39.793z"></path>
        <g>
            <path style="fill:#4E7AB5;" d="M76.128,31.979C76.707,34.599,77,37.293,77,40c0,9.549-3.593,18.546-10.139,25.446L41,39.586v-6.753L76.128,31.979 M76.918,30.96L40,31.857V40l26.87,26.87C73.747,59.993,78,50.493,78,40C78,36.885,77.625,33.857,76.918,30.96L76.918,30.96z"></path>
        </g>
    </g>
    <g>
        <path style="fill:#FFC49C;" d="M40.5,39.5V2.503C60.782,2.77,77.23,19.218,77.497,39.5H40.5z"></path>
        <g>
            <path style="fill:#A16A4A;" d="M41,3.013C60.608,3.537,76.463,19.392,76.987,39H41V3.013 M40,2v38h38C78,19.013,60.987,2,40,2L40,2z"></path>
        </g>
    </g>
</svg>