<svg version="1.1" xmlns="http://www.w3.org/2000/svg" xmlns:xlink="http://www.w3.org/1999/xlink" viewBox="0 0 80 80" style="enable-background:new 0 0 80 80;" xml:space="preserve">
    <polyline style="fill:none;stroke:#5E9C76;stroke-miterlimit:10;" points="6,38 24,22 40,30 54,14 74,20 "></polyline>
    <g>
        <circle style="fill:#BAE0BD;" cx="74" cy="20" r="3.5"></circle>
        <path style="fill:#5E9C76;" d="M74,17c1.654,0,3,1.346,3,3s-1.346,3-3,3s-3-1.346-3-3S72.346,17,74,17 M74,16c-2.209,0-4,1.791-4,4s1.791,4,4,4s4-1.791,4-4S76.209,16,74,16L74,16z"></path>
    </g>
    <g>
        <circle style="fill:#BAE0BD;" cx="54" cy="14" r="3.5"></circle>
        <path style="fill:#5E9C76;" d="M54,11c1.654,0,3,1.346,3,3s-1.346,3-3,3s-3-1.346-3-3S52.346,11,54,11 M54,10c-2.209,0-4,1.791-4,4s1.791,4,4,4s4-1.791,4-4S56.209,10,54,10L54,10z"></path>
    </g>
    <g>
        <circle style="fill:#BAE0BD;" cx="40" cy="30" r="3.5"></circle>
        <path style="fill:#5E9C76;" d="M40,27c1.654,0,3,1.346,3,3s-1.346,3-3,3s-3-1.346-3-3S38.346,27,40,27 M40,26c-2.209,0-4,1.791-4,4s1.791,4,4,4s4-1.791,4-4S42.209,26,40,26L40,26z"></path>
    </g>
    <g>
        <circle style="fill:#BAE0BD;" cx="24" cy="22" r="3.5"></circle>
        <path style="fill:#5E9C76;" d="M24,19c1.654,0,3,1.346,3,3s-1.346,3-3,3s-3-1.346-3-3S22.346,19,24,19 M24,18c-2.209,0-4,1.791-4,4s1.791,4,4,4s4-1.791,4-4S26.209,18,24,18L24,18z"></path>
    </g>
    <g>
        <circle style="fill:#BAE0BD;" cx="6" cy="38" r="3.5"></circle>
        <path style="fill:#5E9C76;" d="M6,35c1.654,0,3,1.346,3,3s-1.346,3-3,3s-3-1.346-3-3S4.346,35,6,35 M6,34c-2.209,0-4,1.791-4,4s1.791,4,4,4s4-1.791,4-4S8.209,34,6,34L6,34z"></path>
    </g>
    <polyline style="fill:none;stroke:#4E7AB5;stroke-miterlimit:10;" points="6,66 24,50 40,58 56,46 74,42 "></polyline>
    <g>
        <circle style="fill:#8BB7F0;" cx="74" cy="42" r="3.5"></circle>
        <g>
            <path style="fill:#4E7AB5;" d="M74,39c1.654,0,3,1.346,3,3s-1.346,3-3,3s-3-1.346-3-3S72.346,39,74,39 M74,38c-2.209,0-4,1.791-4,4s1.791,4,4,4s4-1.791,4-4S76.209,38,74,38L74,38z"></path>
        </g>
    </g>
    <g>
        <circle style="fill:#8BB7F0;" cx="56" cy="46" r="3.5"></circle>
        <g>
            <path style="fill:#4E7AB5;" d="M56,43c1.654,0,3,1.346,3,3s-1.346,3-3,3s-3-1.346-3-3S54.346,43,56,43 M56,42c-2.209,0-4,1.791-4,4s1.791,4,4,4s4-1.791,4-4S58.209,42,56,42L56,42z"></path>
        </g>
    </g>
    <g>
        <circle style="fill:#8BB7F0;" cx="40" cy="58" r="3.5"></circle>
        <g>
            <path style="fill:#4E7AB5;" d="M40,55c1.654,0,3,1.346,3,3s-1.346,3-3,3s-3-1.346-3-3S38.346,55,40,55 M40,54c-2.209,0-4,1.791-4,4s1.791,4,4,4s4-1.791,4-4S42.209,54,40,54L40,54z"></path>
        </g>
    </g>
    <g>
        <circle style="fill:#8BB7F0;" cx="24" cy="50" r="3.5"></circle>
        <g>
            <path style="fill:#4E7AB5;" d="M24,47c1.654,0,3,1.346,3,3s-1.346,3-3,3s-3-1.346-3-3S22.346,47,24,47 M24,46c-2.209,0-4,1.791-4,4s1.791,4,4,4s4-1.791,4-4S26.209,46,24,46L24,46z"></path>
        </g>
    </g>
    <g>
        <circle style="fill:#8BB7F0;" cx="6" cy="66" r="3.5"></circle>
        <g>
            <path style="fill:#4E7AB5;" d="M6,63c1.654,0,3,1.346,3,3s-1.346,3-3,3s-3-1.346-3-3S4.346,63,6,63 M6,62c-2.209,0-4,1.791-4,4s1.791,4,4,4s4-1.791,4-4S8.209,62,6,62L6,62z"></path>
        </g>
    </g>
</svg>