<svg version="1.1" xmlns="http://www.w3.org/2000/svg" xmlns:xlink="http://www.w3.org/1999/xlink" viewBox="0 0 80 80" style="enable-background:new 0 0 80 80;" xml:space="preserve">
    <g>
        <polygon style="fill:#F5CE85;" points="11.62,58.148 17.255,52.513 28.219,62.062 21.898,68.382 3.951,76.047 	"></polygon>
        <path style="fill:#967A44;" d="M17.279,53.197l10.207,8.89l-5.874,5.874L4.902,75.097l7.139-16.663L17.279,53.197 M17.232,51.83l-6.034,6.034L3,76.997l19.183-8.193l6.768-6.768L17.232,51.83L17.232,51.83z"></path>
    </g>
    <g>
        <polygon style="fill:#36404D;" points="7.653,66.158 3.006,77.003 13.879,72.359 	"></polygon>
    </g>
    <g>
        <path style="fill:#F78F8F;" d="M59.241,10.5l4.879-4.879c1.37-1.37,3.191-2.124,5.128-2.124s3.758,0.754,5.128,2.124s2.124,3.19,2.124,5.128s-0.754,3.758-2.124,5.128l-4.879,4.879L59.241,10.5z"></path>
        <g>
            <path style="fill:#C74343;" d="M69.248,3.997c1.804,0,3.499,0.702,4.774,1.978C75.298,7.25,76,8.945,76,10.749s-0.702,3.499-1.978,4.774l-4.525,4.525L59.948,10.5l4.525-4.526C65.749,4.699,67.444,3.997,69.248,3.997 M69.248,2.997c-1.984,0-3.968,0.757-5.481,2.27L58.534,10.5l10.963,10.963l5.233-5.233c3.027-3.027,3.027-7.936,0-10.963v0C73.216,3.754,71.232,2.997,69.248,2.997L69.248,2.997z"></path>
        </g>
    </g>
    <g>
        <path style="fill:#BAE0BD;" d="M22.639,67.641c-0.091-0.49-0.293-1.054-0.714-1.548c-0.609-0.714-1.521-1.116-2.716-1.199c-0.236-2.775-2.495-3.79-4.024-3.995c-0.179-2.158-1.619-3.098-2.907-3.409l44.598-44.624l10.256,10.256L22.639,67.641z"></path>
        <g>
            <path style="fill:#5E9C76;" d="M56.876,13.573l9.549,9.549L22.877,66.695c-0.134-0.313-0.319-0.629-0.572-0.926c-0.625-0.733-1.513-1.18-2.647-1.332c-0.402-2.563-2.436-3.645-4.019-3.968c-0.266-1.751-1.315-2.718-2.434-3.199L56.876,13.573 M56.876,12.158L11.198,57.864c0,0,0.015-0.001,0.043-0.001c0.398,0,3.463,0.11,3.463,3.495c0,0,4.025,0.125,4.025,4.019c4.003,0,3.454,3.427,3.454,3.427l45.655-45.683L56.876,12.158L56.876,12.158z"></path>
        </g>
    </g>
    <g>

            <rect x="58.694" y="8.595" transform="matrix(0.7071 -0.7071 0.7071 0.7071 7.5846 50.0044)" style="fill:#D9E7F5;" width="10.912" height="14.504"></rect>
        <g>
            <path style="fill:#788B9C;" d="M62.88,7.568l9.549,9.549l-7.009,7.008l-9.549-9.549L62.88,7.568 M62.88,6.154l-8.423,8.423L65.42,25.54l8.423-8.423L62.88,6.154L62.88,6.154z"></path>
        </g>
    </g>
</svg>