<svg version="1.1" xmlns="http://www.w3.org/2000/svg" xmlns:xlink="http://www.w3.org/1999/xlink" viewBox="0 0 80 80" style="enable-background:new 0 0 80 80;" xml:space="preserve">
    <g>
        <rect x="30.5" y="4.5" style="fill:#C2E8FF;" width="19" height="19"></rect>
        <g>
            <path style="fill:#7496C4;" d="M49,5v18H31V5H49 M50,4H30v20h20V4L50,4z"></path>
        </g>
    </g>
    <g>
        <rect x="56.5" y="4.5" style="fill:#C2E8FF;" width="19" height="19"></rect>
        <g>
            <path style="fill:#7496C4;" d="M75,5v18H57V5H75 M76,4H56v20h20V4L76,4z"></path>
        </g>
    </g>
    <g>
        <rect x="4.5" y="4.5" style="fill:#C2E8FF;" width="19" height="19"></rect>
        <g>
            <path style="fill:#7496C4;" d="M23,5v18H5V5H23 M24,4H4v20h20V4L24,4z"></path>
        </g>
    </g>
    <g>
        <rect x="30.5" y="56.5" style="fill:#C2E8FF;" width="19" height="19"></rect>
        <g>
            <path style="fill:#7496C4;" d="M49,57v18H31V57H49 M50,56H30v20h20V56L50,56z"></path>
        </g>
    </g>
    <g>
        <rect x="56.5" y="56.5" style="fill:#C2E8FF;" width="19" height="19"></rect>
        <g>
            <path style="fill:#7496C4;" d="M75,57v18H57V57H75 M76,56H56v20h20V56L76,56z"></path>
        </g>
    </g>
    <g>
        <rect x="4.5" y="56.5" style="fill:#C2E8FF;" width="19" height="19"></rect>
        <g>
            <path style="fill:#7496C4;" d="M23,57v18H5V57H23 M24,56H4v20h20V56L24,56z"></path>
        </g>
    </g>
    <g>
        <rect x="30.5" y="30.5" style="fill:#C2E8FF;" width="19" height="19"></rect>
        <g>
            <path style="fill:#7496C4;" d="M49,31v18H31V31H49 M50,30H30v20h20V30L50,30z"></path>
        </g>
    </g>
    <g>
        <rect x="56.5" y="30.5" style="fill:#C2E8FF;" width="19" height="19"></rect>
        <g>
            <path style="fill:#7496C4;" d="M75,31v18H57V31H75 M76,30H56v20h20V30L76,30z"></path>
        </g>
    </g>
    <g>
        <rect x="4.5" y="30.5" style="fill:#C2E8FF;" width="19" height="19"></rect>
        <g>
            <path style="fill:#7496C4;" d="M23,31v18H5V31H23 M24,30H4v20h20V30L24,30z"></path>
        </g>
    </g>
</svg>