<svg version="1.1" xmlns="http://www.w3.org/2000/svg" xmlns:xlink="http://www.w3.org/1999/xlink" viewBox="0 0 48 48" enable-background="new 0 0 48 48" xml:space="preserve">
    <path fill="#FFC107" d="M41.041,34.063c0,0-5.859-10.604-6.041-11.062c-0.138-0.35-2.31-3.983-1.753-7.16c0.093-0.526-0.057-2.225,2.093-2.506l0.123-1.029c-8.059-0.669-7.91-0.698-9.4-0.829c0.01,0.006,0.031,0.096-0.053,1.051	c2.254,0.943,1.854,1.788,1.887,2.71c-0.41,2.549,0.525,5.203,1.744,7.581l6.936,12.18c0.041,0.069,0.076,0.127,0.106,0.182	l0.179,0.304c0.281,0.476,0.121,1.088-0.354,1.368c-0.159,0.094-0.333,0.138-0.506,0.138c-0.343,0-0.677-0.176-0.862-0.493	l-0.157-0.266c-0.028-0.026-0.037-0.051-0.037-0.051l-9.747-16.568l-0.059-0.101L19.248,9.497c-2.551-4.569-5.55-3.735-7.185-2.69	c-2.568,1.641-1.395,4.056-0.917,5.038c0.054,0.14,0.106,0.262,0.156,0.367c0.016,0.081,0.022,0.104,0.013,0.03	c0.1,0.209,0.179,0.34,0.198,0.369l8.837,14.244c0,0,0.001,0.001,0.001,0.002l0.156,0.251c0.097,0.212,0.144,0.511-0.227,0.701	c-0.516,0.265-0.86-0.343-0.86-0.343l-1.724-2.384c-0.088-0.163-0.906-1.607-2.479-1.995c-0.667-0.167-1.724-0.188-2.959,0.641	c-0.177,0.119-0.325,0.224-0.481,0.333l-0.008-0.012l-5.59,3.823c0,0-0.406,0.468,0,1.188c0.406,0.72,1.083,0.491,1.083,0.491	l5.59-3.823l-0.001-0.001c0.166-0.104,0.339-0.217,0.522-0.34c0.507-0.342,0.951-0.462,1.354-0.362	c0.611,0.146,1.029,0.752,1.256,1.086l1.81,2.517c0.68,0.888,2.08,1.929,3.664,1.021c2.512-1.439,0.616-3.907,0.616-3.907	L14.102,11.1c0,0-0.602-1.088,0.176-1.381c0.562-0.211,1.083,0.458,1.351,0.897c0.013,0.023,0.038,0.069,0.076,0.138l-0.017,0.006	l0.017-0.005c0.028,0.052,0.069,0.126,0.11,0.203c0,0,0.001,0.001,0.001,0.002c1.724,3.164,14.437,26.5,15.094,27.633	c0.695,1.199,4,5.02,8.557,2.612C44.023,38.799,41.041,34.063,41.041,34.063z"></path>
    <g>
        <rect opacity="0.06" fill="none" width="48" height="48"></rect>
        <circle fill="#BB8920" cx="31.499" cy="21.496" r="1.5"></circle>
        <circle fill="#BB8920" cx="28.81" cy="26.388" r="1.5"></circle>
        <circle fill="#BB8920" cx="31.118" cy="30.45" r="1.5"></circle>
        <circle fill="#BB8920" cx="33.627" cy="34.487" r="1.5"></circle>
        <path fill="#BB8920" d="M32.352,26.462c-0.533-0.634-0.451-1.581,0.182-2.114c0.633-0.53,1.578-0.453,2.111,0.182c0.535,0.634,0.453,1.581-0.18,2.114C33.832,27.176,32.886,27.097,32.352,26.462z"></path>
        <path fill="#BB8920" d="M34.645,30.461c-0.533-0.634-0.451-1.581,0.182-2.115c0.633-0.529,1.578-0.452,2.111,0.182c0.535,0.635,0.453,1.582-0.18,2.114C36.125,31.175,35.179,31.096,34.645,30.461z"></path>
        <circle fill="#BB8920" cx="38" cy="33.201" r="1"></circle>
        <path fill="#BB8920" d="M20.951,14.631c-0.356-0.423-0.302-1.051,0.12-1.409c0.425-0.355,1.055-0.299,1.41,0.123c0.355,0.419,0.3,1.053-0.121,1.407C21.938,15.109,21.307,15.055,20.951,14.631z"></path>
        <path fill="#BB8920" d="M22.679,17.63c-0.355-0.421-0.302-1.05,0.12-1.407c0.425-0.355,1.055-0.299,1.41,0.123c0.355,0.418,0.301,1.053-0.121,1.407C23.666,18.11,23.036,18.056,22.679,17.63z"></path>
        <path fill="#BB8920" d="M24.475,20.688c-0.355-0.422-0.302-1.051,0.12-1.408c0.425-0.356,1.056-0.3,1.409,0.123c0.355,0.417,0.301,1.053-0.121,1.407C25.461,21.167,24.831,21.112,24.475,20.688z"></path>
        <path fill="#BB8920" d="M26.203,23.588c-0.355-0.421-0.303-1.051,0.119-1.408c0.426-0.355,1.056-0.299,1.41,0.123c0.355,0.418,0.301,1.053-0.121,1.407C27.189,24.067,26.56,24.013,26.203,23.588z"></path>
    </g>
    <path fill="#455A64" d="M7.264,29.552c0,0-0.677,0.229-1.083-0.491c-0.406-0.721,0-1.188,0-1.188l4.28-2.945l1.161,1.646L7.264,29.552z"></path>
</svg>