<svg version="1.1" xmlns="http://www.w3.org/2000/svg" xmlns:xlink="http://www.w3.org/1999/xlink" viewBox="0 0 48 48" enable-background="new 0 0 48 48" xml:space="preserve">
    <path fill="#8BC34A" d="M24,25c-6.481,0-14-1.541-17-5.5V32l0.154,1c1.103,3.945,7.614,7,16.846,7s15.743-3.055,16.846-7L41,32V19.5C38.275,22.493,32.417,25,24,25z"></path>
    <path fill="#455A64" d="M42,14c0,4.418-8,8-18,8S6,18.418,6,14s8.059-8,18-8S42,9.582,42,14z"></path>
    <path fill="#ECEFF1" d="M41,16.5c0,4.142-7.555,7.5-17,7.5S7,20.642,7,16.5S14.611,9,24,9S41,12.358,41,16.5z"></path>
    <g>
        <g>
            <path fill="#546E7A" d="M24,22c-10,0-18-3.582-18-8c0,0,0,1.108,0,1.997c0,0.313,0,0.595,0,0.795C6,16.877,6,16.95,6,17c0,0.5,0.154,1,0.154,1c1.103,3.945,8.614,7,17.846,7s16.743-3.055,17.846-7c0,0,0.154-0.5,0.154-1c0-0.05,0-0.123,0-0.208c0-0.2,0-0.482,0-0.795C42,15.108,42,14,42,14C42,18.418,34,22,24,22z"></path>
        </g>
        <g>
            <path fill="#546E7A" d="M41,30.375V32l-0.154,1c-0.928,3.321-5.699,6.004-12.689,6.771c-0.108,0.012-0.217,0.024-0.325,0.035c-0.284,0.028-0.569,0.055-0.86,0.077c-0.371,0.029-0.731,0.052-1.079,0.068c-0.103,0.005-0.204,0.011-0.308,0.015C25.012,39.99,24.478,40,24,40s-1.011-0.01-1.584-0.033c-0.104-0.004-0.205-0.01-0.308-0.015c-0.348-0.017-0.708-0.039-1.079-0.068c-0.291-0.022-0.577-0.049-0.861-0.077c-0.107-0.011-0.215-0.023-0.323-0.035C12.854,39.004,8.082,36.321,7.154,33L7,32v-1.625C6.5,30.75,6,31.5,6,32c0,0,0,2.438,0,3s0.154,1,0.154,1c1.103,3.945,8.614,7,17.846,7s16.743-3.055,17.846-7c0,0,0.154-0.417,0.154-1s0-3,0-3C42,31.5,41.5,30.75,41,30.375z"></path>
        </g>
    </g>
    <g>
        <rect x="23" y="24" fill="#37474F" width="2" height="19"></rect>
        <polygon fill="#37474F" points="37,40 35,41 35,23 37,22"></polygon>
        <polygon fill="#37474F" points="13,41 11,40 11,22 13,23"></polygon>
        <path fill="#37474F" d="M26,24.942C26,25.495,25,26,25,26h-2c0,0-1-0.481-1-1.034V22c0.797,0.059,3.563,0.059,4,0V24.942z"></path>
        <path fill="#37474F" d="M22.108,39.952C22.108,39.399,23,39,23,39h2c0,0,1,0.399,1,0.952v2.999c-0.469,0.049-3.266,0.07-4,0L22.108,39.952z"></path>
        <path fill="#37474F" d="M38,22.356C38,22.909,37,24,37,24l-2,1c0,0-1-0.665-1-1.218v-3.116c0.469-0.166,3-0.979,4-1.646V22.356z"></path>
        <path fill="#37474F" d="M10,22.356C10,22.909,11,24,11,24l2,1c0,0,1-0.665,1-1.218v-3.116c-0.469-0.166-3-0.979-4-1.646V22.356z"></path>
        <path fill="#37474F" d="M34,38.533C34,37.98,35,37,35,37l2-1c0,0,1,0.417,1,0.624v3.407c-0.469,0.313-3,1.438-4,1.627V38.533z"></path>
        <path fill="#37474F" d="M14,38.533C14,37.98,13,37,13,37l-2-1c0,0-1,0.417-1,0.624v3.407c0.469,0.313,3,1.438,4,1.627V38.533z"></path>
    </g>
    <line fill="none" stroke="#A1887F" stroke-width="3" stroke-linecap="round" stroke-linejoin="round" x1="40.063" y1="6" x2="21" y2="15"></line>
    <circle fill="#795548" cx="21" cy="15" r="3"></circle>
</svg>