<svg version="1.1" xmlns="http://www.w3.org/2000/svg" xmlns:xlink="http://www.w3.org/1999/xlink" viewBox="0 0 48 48" enable-background="new 0 0 48 48" xml:space="preserve">
    <rect x="17" y="9" fill="#5D4037" width="14" height="2"></rect>
    <g>
        <g>
            <path fill="#795548" d="M37.168,10c-0.079-1.113-0.357-2.309-1.145-2.976c-0.757-0.665-1.906-0.669-2.847-0.398c-0.936,0.286-1.369,1.036-1.355,1.963c0.012,0.476,0.091,0.876,0.31,1.323l0.672,1.568c1.743,4.202,3.426,8.428,4.896,12.763                c0.736,2.177,1.467,4.33,1.972,6.696c0.121,0.61,0.244,1.194,0.275,1.988l-0.001,0.495l-0.04,0.582                c-0.038,0.353-0.091,0.703-0.168,1.046c-0.304,1.374-0.898,2.65-1.709,3.763c-1.599,2.226-4.177,3.836-7.062,4.101                c-0.778,0.064-1.3,0.037-1.867,0.049L27.4,42.975l-3.399,0.023v-3.996l0.166-0.001v3.998l-3.396-0.021l-1.698-0.013l-0.849-0.006                l-0.479-0.009l-0.212-0.008l-0.297-0.023c-2.937-0.265-5.473-1.87-7.091-4.087c-0.812-1.11-1.409-2.385-1.715-3.758                c-0.151-0.7-0.231-1.363-0.214-2.146c0.027-0.747,0.152-1.371,0.273-1.97c0.511-2.367,1.241-4.517,1.987-6.688                c1.483-4.325,3.179-8.541,4.935-12.732l0.676-1.563l0.084-0.193l0.021-0.047c0,0.004,0.016-0.041,0.001,0.002l0.01-0.024                l0.035-0.09c0.019-0.036,0.052-0.164,0.069-0.256c0.039-0.204,0.05-0.431,0.036-0.653c-0.056-0.911-0.544-1.719-1.433-2.048                c-0.894-0.313-2.069-0.332-2.796,0.347C11.346,7.693,11.099,8.89,11,10c-0.11-1.108-0.109-2.359,0.68-3.395                c0.396-0.504,1.011-0.839,1.631-0.973c0.64-0.137,1.238-0.153,1.902-0.017c0.646,0.136,1.302,0.489,1.763,1.026                c0.47,0.531,0.751,1.188,0.881,1.856c0.064,0.337,0.093,0.681,0.071,1.04c-0.015,0.188-0.025,0.342-0.084,0.578l-0.028,0.113                l-0.039,0.13l-0.061,0.206l-0.479,1.629c-1.307,4.33-2.587,8.669-3.787,12.992c-0.57,2.157-1.146,4.352-1.521,6.426                c-0.084,0.514-0.151,1.011-0.143,1.396c0.01,0.35,0.075,0.817,0.187,1.218c0.223,0.828,0.637,1.634,1.193,2.325                c1.091,1.394,2.747,2.367,4.352,2.469l0.127,0.013l0.212,0.005l0.369,0.002l0.849-0.006l1.698-0.013l3.396-0.021v3.998                l-0.166-0.001v-3.996l3.399,0.023l1.699,0.012c0.565,0,1.18,0.02,1.531-0.012c1.66-0.106,3.275-1.085,4.384-2.479                c0.557-0.694,0.969-1.502,1.19-2.332c0.058-0.208,0.097-0.417,0.13-0.626l0.035-0.265l0.017-0.354                c0.008-0.341-0.06-0.878-0.144-1.382c-0.375-2.081-0.938-4.28-1.505-6.442c-1.188-4.332-2.452-8.682-3.745-13.02l-0.476-1.632                C30.309,9.89,30.23,9.14,30.313,8.486c0.078-0.672,0.318-1.373,0.8-1.933c0.48-0.565,1.18-0.876,1.821-0.977                c0.654-0.103,1.259-0.066,1.884,0.077c0.613,0.146,1.22,0.469,1.626,0.963C37.258,7.634,37.266,8.893,37.168,10z"></path>
        </g>
        <path fill="none" stroke="#795548" stroke-width="2" stroke-linecap="round" d="M37.168,10c0-1,0.168-4-3-4s-3.417,2.833-3,4s7,19,7,23s-3.582,8-8,8h-6.001"></path>
        <path fill="none" stroke="#795548" stroke-width="2" stroke-linecap="round" d="M10.999,10c0-1-0.168-4,3-4s3.417,2.833,3,4s-7,19-7,23s3.582,8,8,8H24"></path>
    </g>
    <g>
        <rect x="12" y="32" fill="#FFC107" width="24" height="4"></rect>
        <rect x="16" y="20" fill="#FFC107" width="16" height="4"></rect>
        <rect x="18" y="14" fill="#FFC107" width="12" height="4"></rect>
        <rect x="14" y="26" fill="#FFC107" width="20" height="4"></rect>
        <rect x="20" y="8" fill="#FFC107" width="8" height="4"></rect>
    </g>
    <g>
        <circle fill="#EF6C00" cx="20" cy="16" r="1"></circle>
        <circle fill="#EF6C00" cx="16" cy="28" r="1"></circle>
        <circle fill="#EF6C00" cx="15" cy="34" r="1"></circle>
        <circle fill="#EF6C00" cx="18" cy="22" r="1"></circle>
        <circle fill="#EF6C00" cx="30" cy="22" r="1"></circle>
        <circle fill="#EF6C00" cx="32" cy="28" r="1"></circle>
        <circle fill="#EF6C00" cx="33" cy="34" r="1"></circle>
        <circle fill="#EF6C00" cx="28" cy="16" r="1"></circle>
        <circle fill="#EF6C00" cx="22" cy="10" r="1"></circle>
        <circle fill="#EF6C00" cx="26" cy="10" r="1"></circle>
    </g>
</svg>