<svg version="1.1" xmlns="http://www.w3.org/2000/svg" xmlns:xlink="http://www.w3.org/1999/xlink" height="48px" viewBox="0 0 48 48" enable-background="new 0 0 48 48" xml:space="preserve">
    <g>
        <path fill="#FFC107" d="M3.974,24c-0.553,0-1-0.447-1-1v-2c0-0.553,0.447-1,1-1s1,0.447,1,1v2C4.974,23.553,4.526,24,3.974,24z"></path>
        <path fill="#FFC107" d="M15.974,21c-3,0-8,2-8,6.5c0,5.92,4.715,7.5,7.5,7.5H25.5c2.785,0,7.5-1.58,7.5-7.5 c0-0.476-0.034-0.92-0.094-1.339C38.711,27.113,44,28.844,44,32V14C44,21,15.974,21,15.974,21z M30,28.559C30,31.898,26.556,32,25.5,32H15.474c-1.056,0-4.5-0.25-4.5-3.565C10.974,25.344,14.944,25,16,25l0,0c0.239,0,7.059,0.016,12.476,0.576C29.308,26.06,30,26.941,30,28.559z"></path>
        <rect x="44" y="14" fill="#FFC107" width="1" height="18"></rect>
    </g>
    <g>
        <path fill="#C99624" d="M15.974,21h-11v2h5.271C11.953,21.637,14.281,21,15.974,21z"></path>
        <path fill="#C99624" d="M29.928,27.755c0.279,0.034,0.559,0.068,0.838,0.106c0.789,0.106,1.51,0.222,2.199,0.34C32.98,27.971,33,27.745,33,27.5c0-0.476-0.034-0.92-0.094-1.339c-1.471-0.24-2.971-0.434-4.431-0.585C29.156,25.972,29.737,26.641,29.928,27.755z"></path>
    </g>
</svg>