<svg version="1.1" xmlns="http://www.w3.org/2000/svg" xmlns:xlink="http://www.w3.org/1999/xlink" viewBox="0 0 48 48" enable-background="new 0 0 48 48" xml:space="preserve">
    <path fill="#FF9800" d="M31.777,19.774l-1.396-1.41l-1.396-1.408c-2.311-2.334-6.277-2.113-8.37,0c-2.093,2.114-2.791,2.818-2.791,2.818s2.093,0.705,1.067,2.444c-0.538,0.913-2.564,2.997-4.208,3.075c-2.441,0.116-2.441-1.293-2.441-1.293s-3.488,2.113-5.581,4.228c-2.092,2.114-2.791,5.638,1.395,9.864l1.396,1.408l1.395,1.409c4.186,4.228,7.674,3.522,9.767,1.409c2.093-2.113,4.098-5.725,4.098-5.725s-1.308,0.088-1.193-2.377c0.078-1.66,2.142-3.706,3.045-4.249c1.723-1.036,2.42,1.078,2.42,1.078s0.698-0.704,2.791-2.818S34.089,22.108,31.777,19.774z"></path>
    <g>
        <polygon fill="#5D4037" points="42.326,8.403 40.932,6.994 21.318,24.709 24.108,27.527 	"></polygon>
        <path fill="#5D4037" d="M8.757,41.615l-1.395-1.409c0,0,5.581-5.637,4.883-6.341c0.698,0.704,2.093,2.113,2.791,2.817C14.338,35.979,8.757,41.615,8.757,41.615z"></path>
        <polygon fill="#5D4037" points="15.035,36.683 12.245,33.865 12.942,33.16 15.733,35.979 	"></polygon>
        <path fill="#5D4037" d="M40.992,11.171c0.387-0.391,1.014-0.39,1.4,0c0.387,0.391,0.387,1.023,0,1.415c-0.387,0.391-1.015,0.39-1.4,0C40.605,12.195,40.604,11.563,40.992,11.171z"></path>
        <path fill="#5D4037" d="M38.891,13.293c0.388-0.392,1.014-0.391,1.4,0s0.388,1.023,0,1.414c-0.387,0.391-1.014,0.391-1.4,0S38.504,13.684,38.891,13.293z"></path>
        <path fill="#5D4037" d="M35.391,8.343c0.387-0.391,1.014-0.391,1.4,0s0.387,1.023,0,1.414c-0.387,0.392-1.014,0.391-1.4,0S35.004,8.733,35.391,8.343z"></path>
        <path fill="#5D4037" d="M33.29,10.464c0.387-0.391,1.014-0.39,1.4,0c0.387,0.391,0.388,1.023,0,1.415c-0.387,0.391-1.014,0.39-1.4,0C32.903,11.488,32.903,10.855,33.29,10.464z"></path>
        <polygon fill="#5D4037" points="37.491,10.464 36.09,9.05 36.791,8.343 38.191,9.757 	"></polygon>
        <polygon fill="#5D4037" points="40.291,10.464 41.691,11.879 42.393,11.171 40.992,9.757 	"></polygon>
        <polygon fill="#5D4037" points="38.191,12.586 39.592,14 40.291,13.293 38.891,11.879 	"></polygon>
        <polygon fill="#5D4037" points="35.391,12.586 33.99,11.171 34.69,10.464 36.09,11.879 	"></polygon>
    </g>
    <polygon fill="#C16629" points="36.026,15 42.326,8.403 40.932,6.994 34.152,13.109 "></polygon>
    <g>
        <path fill="#3E2723" d="M13.989,29.286l3.836-3.876c0.193-0.194,0.542,0.862,0.348,1.057l-3.836,3.876C14.146,30.537,13.796,29.48,13.989,29.286z"></path>
        <path fill="#3E2723" d="M12.942,28.933c0.386-0.389,1.01-0.389,1.396,0s0.385,1.02,0,1.41c-0.386,0.389-1.01,0.388-1.396,0C12.557,29.953,12.557,29.323,12.942,28.933z"></path>
        <path fill="#3E2723" d="M17.826,25.41c0.386-0.389,1.01-0.389,1.395,0c0.385,0.39,0.385,1.02,0,1.409c-0.386,0.389-1.01,0.389-1.395,0C17.44,26.43,17.44,25.8,17.826,25.41z"></path>
        <path fill="#3E2723" d="M19.57,34.922l3.837-3.875c0.192-0.194-0.854-0.547-1.047-0.353l-3.837,3.875C18.33,34.764,19.377,35.116,19.57,34.922z"></path>
        <path fill="#3E2723" d="M19.918,35.979c0.385-0.39,0.385-1.021,0-1.409c-0.385-0.39-1.01-0.39-1.396,0c-0.386,0.389-0.385,1.02,0,1.409C18.908,36.367,19.533,36.368,19.918,35.979z"></path>
        <path fill="#3E2723" d="M23.407,31.047c0.385-0.39,0.385-1.021,0-1.409c-0.386-0.389-1.01-0.39-1.396,0c-0.385,0.39-0.385,1.02,0,1.409C22.396,31.437,23.021,31.437,23.407,31.047z"></path>
    </g>
</svg>