<svg version="1.1" xmlns="http://www.w3.org/2000/svg" xmlns:xlink="http://www.w3.org/1999/xlink" viewBox="0 0 48 48" enable-background="new 0 0 48 48" xml:space="preserve">
    <g>
        <rect x="39.319" y="4.183" transform="matrix(0.7076 -0.7066 0.7066 0.7076 5.8614 30.5289)" fill="#FFC107" width="0.999" height="7.999"></rect>
        <rect x="39.319" y="4.183" transform="matrix(0.7076 -0.7066 0.7066 0.7076 5.8614 30.5289)" fill="#455A64" width="0.999" height="7.999"></rect>
        <path fill="#455A64" d="M33.515,17.313l-2.829-2.828c0,0,7.365-7.364,5.951-8.778c2.092,1.356,4.801,4.252,5.656,5.656C40.879,9.95,33.515,17.313,33.515,17.313z"></path>
        <rect x="20.593" y="13.961" transform="matrix(0.7072 0.707 -0.707 0.7072 24.5796 -8.5342)" fill="#455A64" width="4" height="22.891"></rect>
        <polygon fill="#455A64" points="6.415,43 5,41.586 11.657,33.515 14.485,36.343 	"></polygon>
    </g>
    <g>
        <path fill="#FFC107" d="M20.197,33.429c-0.391,0.391-1.024,0.391-1.414,0l0,0c-0.391-0.391-0.391-1.023,0-1.414L29.39,21.408c0.392-0.392,1.024-0.391,1.414,0l0,0c0.391,0.391,0.392,1.023,0,1.414L20.197,33.429z"></path>

        <rect x="29.393" y="15.607" transform="matrix(0.7071 0.7071 -0.7071 0.7071 20.9377 -17.3342)" fill="#FFC107" width="4.001" height="2"></rect>
        <rect x="11.788" y="33.212" transform="matrix(0.7071 0.7071 -0.7071 0.7071 28.2298 0.2711)" fill="#FFC107" width="4" height="2"></rect>
        <path fill="#FFC107" d="M26.535,20.051c0.391-0.392,1.023-0.391,1.414,0c0.391,0.39,1.099,1.73,0.707,2.121c-0.391,0.391-1.73-0.316-2.121-0.707S26.145,20.441,26.535,20.051z"></path>
        <path fill="#FFC107" d="M20.878,25.707c0.391-0.391,1.024-0.391,1.415,0s1.098,1.73,0.707,2.121c-0.391,0.392-1.731-0.316-2.122-0.707C20.488,26.73,20.488,26.098,20.878,25.707z"></path>
        <path fill="#FFC107" d="M18.05,28.535c0.391-0.391,1.023-0.39,1.414,0c0.391,0.391,1.098,1.73,0.707,2.122c-0.391,0.391-1.731-0.317-2.121-0.707C17.66,29.56,17.659,28.927,18.05,28.535z"></path>
        <path fill="#FFC107" d="M23.707,22.879c0.391-0.391,1.024-0.391,1.414,0c0.391,0.391,1.098,1.73,0.707,2.121s-1.73-0.316-2.121-0.707S23.316,23.27,23.707,22.879z"></path>
    </g>
</svg>