<svg version="1.1" xmlns="http://www.w3.org/2000/svg" xmlns:xlink="http://www.w3.org/1999/xlink" viewBox="0 0 48 48" enable-background="new 0 0 48 48" xml:space="preserve">
    <g>
        <path fill="#FFC107" d="M15.974,22c-3,0-8,1.565-8,6.065c0,5.92,4.715,6.935,7.5,6.935H24v-3h-8.526c-1.056,0-4.5,0.315-4.5-3c0-3.091,4.053-3,5.026-3c19.974,0,29,0,29,5V17C45,22,34.974,22,15.974,22z"></path>
        <rect x="45" y="17" fill="#FFC107" width="1" height="14"></rect>
        <path fill="#FFC107" d="M3,25c-0.553,0-1-0.447-1-1v-2c0-0.553,0.447-1,1-1s1,0.447,1,1v2C4,24.553,3.553,25,3,25z"></path>
        <path fill="#FFC107" d="M26.52,22c-0.145,0-0.324,0-0.52,0l0,0h-3.972C22.01,22,22,22,22,22H3v2h19c0,0,2.84,0,4,0c0.195,0,0.373,0,0.518,0c2.884,0.003,4.354,0.733,4.486,4c0,0,0.205,4-4.004,4h-5v3h5.013C34.458,35,34,28,34,28C33.823,23.116,31.061,22.005,26.52,22z"></path>
        <path fill="#FFC107" d="M19,19.5c0,0.276-0.224,0.5-0.5,0.5h-3c-0.276,0-0.5-0.224-0.5-0.5l0,0c0-0.276,0.224-0.5,0.5-0.5h3C18.776,19,19,19.224,19,19.5L19,19.5z"></path>
        <path fill="#FFC107" d="M25,19.5c0,0.276-0.224,0.5-0.5,0.5h-3c-0.276,0-0.5-0.224-0.5-0.5l0,0c0-0.276,0.224-0.5,0.5-0.5h3C24.776,19,25,19.224,25,19.5L25,19.5z"></path>
        <path fill="#FFC107" d="M22,19.5c0,0.276-0.224,0.5-0.5,0.5h-3c-0.276,0-0.5-0.224-0.5-0.5l0,0c0-0.276,0.224-0.5,0.5-0.5h3C21.776,19,22,19.224,22,19.5L22,19.5z"></path>
    </g>
    <g>
        <path fill="#D3A020" d="M22,22c0,0,0.01,0,0.028,0H26c0.195,0,0.375,0,0.52,0c3.906,0.004,6.483,0.844,7.244,4.182c0.727,0.033,1.413,0.072,2.061,0.117c-0.354-2.126-1.237-3.543-2.413-4.484C29.408,21.999,22.303,22,15.974,22H22z"></path>
        <path fill="#D3A020" d="M26.518,24c-0.145,0-0.322,0-0.518,0c-1.16,0-4,0-4,0H9.923c-0.652,0.539-1.188,1.199-1.532,2h5.39c0.094,0,0.179,0,0.246,0h1.728c0.094,0,0.179,0,0.246,0h6c0,0,0.024,0.002,0.062,0.004c2.845,0.006,6.372,0.024,8.601,0.074C30.068,24.444,28.707,24.002,26.518,24z"></path>
    </g>
    <g>
        <rect x="16" y="20" fill="#AF8023" width="2" height="12.001"></rect>
        <rect x="19" y="20" fill="#AF8023" width="2" height="12"></rect>
        <rect x="22" y="20" fill="#AF8023" width="2" height="12"></rect>
    </g>
</svg>