<svg version="1.1" xmlns="http://www.w3.org/2000/svg" xmlns:xlink="http://www.w3.org/1999/xlink" viewBox="0 0 48 48" enable-background="new 0 0 48 48" xml:space="preserve">
    <g>
        <polygon fill="#C99624" points="37.612,18.4 26.69,5.901 25.171,7.2 33.151,16.201 	"></polygon>
        <path fill="#C99624" d="M29.525,30.837c-0.007,0-0.013,0.001-0.02,0.001c-2.645,0-5.042-1.347-6.414-3.602c-1.961-3.224-1.188-7.348,1.644-9.68l-0.996-1.773c-3.816,2.907-4.902,8.305-2.356,12.492c1.738,2.856,4.774,4.563,8.123,4.563c0.192,0,0.383-0.027,0.575-0.039L29.525,30.837z"></path>
    </g>
    <g>
        <path fill="#FFC107" d="M27.451,5.251c-0.359-0.42-0.989-0.47-1.41-0.11l-1.521,1.3c-0.42,0.359-0.469,0.989-0.11,1.41c0.359,0.42,0.99,0.469,1.41,0.11l1.521-1.3C27.761,6.302,27.811,5.672,27.451,5.251z"></path>
        <rect x="10" y="22" fill="#FFC107" width="1" height="20"></rect>
        <path fill="#FFC107" d="M37.612,18.4c-1.738-2.857-4.775-4.563-8.122-4.563c-1.735,0-3.44,0.479-4.931,1.385c-0.286,0.174-0.559,0.362-0.82,0.561l0.996,1.773c0.271-0.224,0.556-0.437,0.864-0.625c1.177-0.716,2.521-1.094,3.891-1.094c2.645,0,5.041,1.347,6.413,3.602c1.042,1.711,1.354,3.725,0.88,5.671s-1.677,3.592-3.388,4.633c-1.176,0.716-2.521,1.095-3.89,1.095c0.007,0,0.013-0.001,0.02-0.001l0.556,1.961c1.534-0.094,3.03-0.54,4.354-1.346c2.167-1.319,3.691-3.403,4.292-5.868C39.327,23.118,38.931,20.566,37.612,18.4z"></path>
        <path fill="#FFC107" d="M36.998,24.001c0,3-3.917,5.459-4.999,6C25.999,33.001,11,29,11,22v20c0-3.156,6-7.999,10.999-7.999c5,0,9.876,0.583,13.875-3.417C39.67,26.438,36.998,24.001,36.998,24.001z"></path>
        <path fill="none" stroke="#FFC107" stroke-width="2" stroke-miterlimit="10" d="M25.987,15.612c0,0-1.926,0.544-1.492,2.208c0.505,1.937,2.412,1.478,2.412,1.478l3.89-0.935c0,0,1.906-0.618,2.302,1.021c0.394,1.641-1.602,1.896-1.602,1.896l-3.889,0.935c0,0-1.996,0.254-1.595,1.926c0.401,1.671,2.295,0.992,2.295,0.992l3.891-0.936c0,0,1.884-0.71,2.315,1.083c0.378,1.57-1.616,1.835-1.616,1.835l-3.889,0.934c0,0-1.981,0.315-1.478,2.412c0.504,2.098,3.311,1.211,3.311,1.211"></path>
    </g>
</svg>