<svg version="1.1" xmlns="http://www.w3.org/2000/svg" xmlns:xlink="http://www.w3.org/1999/xlink" viewBox="0 0 48 48" enable-background="new 0 0 48 48" xml:space="preserve">
    <path fill="#3F51B5" d="M41,24c0-1.104-0.896-2-2-2H9c-1.104,0-2,0.896-2,2v7c0,1.104,0.896,2,2,2h30c1.104,0,2-0.896,2-2V24z"></path>
    <path fill="#FFC107" d="M3,23v6c0,1.104,0.896,2,2,2h38c1.104,0,2-0.896,2-2v-6H3z"></path>
    <path fill="#2196F3" d="M45,25c0,1.104-0.896,2-2,2H5c-1.104,0-2-0.896-2-2v-6c0-1.104,0.896-2,2-2h38c1.104,0,2,0.896,2,2V25z"></path>
    <g>
        <rect x="7" y="28" fill="#795548" width="2" height="2"></rect>
        <rect x="11" y="28" fill="#795548" width="2" height="2"></rect>
        <rect x="15" y="28" fill="#795548" width="2" height="2"></rect>
        <rect x="19" y="28" fill="#795548" width="2" height="2"></rect>
        <rect x="23" y="28" fill="#795548" width="2" height="2"></rect>
        <rect x="27" y="28" fill="#795548" width="2" height="2"></rect>
        <rect x="31" y="28" fill="#795548" width="2" height="2"></rect>
        <rect x="35" y="28" fill="#795548" width="2" height="2"></rect>
        <rect x="39" y="28" fill="#795548" width="2" height="2"></rect>
    </g>
    <path fill="#3F51B5" d="M41,17c0-1.104-0.896-2-2-2H9c-1.104,0-2,0.896-2,2v10h34V17z"></path>
</svg>