<svg version="1.1" xmlns="http://www.w3.org/2000/svg" xmlns:xlink="http://www.w3.org/1999/xlink" viewBox="0 0 48 48" enable-background="new 0 0 48 48" xml:space="preserve">
    <g>
        <rect x="28" y="17" fill="#90A4AE" width="1" height="11"></rect>
        <rect x="20" y="11" fill="#90A4AE" width="1" height="26"></rect>
        <rect x="18" y="10" fill="#90A4AE" width="1" height="28"></rect>
        <rect x="22" y="11" fill="#90A4AE" width="1" height="26"></rect>
        <rect x="24" y="14" fill="#90A4AE" width="1" height="23"></rect>
        <rect x="26" y="17" fill="#90A4AE" width="1" height="15"></rect>
    </g>
    <g>
        <path fill="#795548" d="M33,13c-2.281,0-2.906,3-5,3c-1.625,0.041-3.296-5.417-3.296-5.417C22.329,4.438,18,5,17,5l-0.036,3.603C17.925,8.504,19.069,8.535,20,9c2,1,4,8,5,9s3,1,3,1s2-1,3-2s1.25-2,2-2c0,0-0.25,1.75-1,3c-0.401,0.669-14,20-14,20h-1h-1.667H14c-0.552,0-1,0.447-1,1v3c0,0.553,0.448,1,1,1h3h6c0,0,11.629-25.1,12.041-27C35.454,14.1,34.688,13,33,13z"></path>
        <rect x="14" y="5" fill="#795548" width="3" height="33"></rect>
    </g>
    <g>
        <path fill="#FFC107" d="M33,16c-0.164,0.388-2,4-5,4s-4-2-5-4s-1.737-5.073-4-5c-1.66,0.054-2,2-2,2c0-5.542,0-5.542,0-6c4,0,5,2,7,7c1.145,2.862,2,4,4,4s3.594-2.438,4-3c0.148-0.187,0.625-0.438,1,0C33.191,15.314,33.164,15.612,33,16z"></path>
        <path fill="#FFC107" d="M16,4h-1c-0.552,0-1,0.447-1,1h3C17,4.447,16.552,4,16,4z"></path>
    </g>
</svg>