<svg version="1.1" xmlns="http://www.w3.org/2000/svg" xmlns:xlink="http://www.w3.org/1999/xlink" viewBox="0 0 48 48" enable-background="new 0 0 48 48" xml:space="preserve">
    <g>
        <rect x="17.665" y="26.028" transform="matrix(0.7067 -0.7075 0.7075 0.7067 -16.4772 22.3042)" fill="#AF8023" width="2" height="10"></rect>
        <rect x="19.787" y="23.905" transform="matrix(0.7069 -0.7074 0.7074 0.7069 -14.3531 23.177)" fill="#AF8023" width="2" height="10.001"></rect>
        <rect x="21.908" y="21.785" transform="matrix(0.7071 -0.7071 0.7071 0.7071 -12.23 24.0436)" fill="#AF8023" width="2" height="10"></rect>
    </g>
    <g>
        <path fill="#FFC107" d="M42.363,10.293c0,0-3.898-0.479-15.92,11.543C14.423,33.856,8.059,40.222,8.059,40.222l-1.415-1.414c0,0,6.364-6.365,18.385-18.387C37.051,8.4,36.707,4.637,36.707,4.637L42.363,10.293z"></path>
        <path fill="#FFC107" d="M29.014,30.579l-6.825,6.859c-1.223,1.223-4.274,2.797-7.071,0c-2.796-2.797-1.223-5.848,0-7.071l6.826-6.859c1.223-1.223,4.274-2.797,7.071,0S30.236,29.355,29.014,30.579z M23.353,24.926l-6.822,6.855c-0.347,0.355-1.996,2.247,0,4.243c1.997,1.996,3.888,0.347,4.247-0.004l6.82-6.854c0.354-0.361,1.996-2.252,0.002-4.245C25.604,22.926,23.712,24.575,23.353,24.926z"></path>

        <rect x="39.389" y="2.112" transform="matrix(0.7076 -0.7066 0.7066 0.7076 6.6388 30.2658)" fill="#FFC107" width="1.001" height="9.999"></rect>
        <path fill="#FFC107" d="M42.363,10.293c0,0-3.898-0.479-15.92,11.543C14.423,33.856,8.059,40.222,8.059,40.222l-1.415-1.414c0,0,6.364-6.365,18.385-18.387C37.051,8.4,36.707,4.637,36.707,4.637L42.363,10.293z"></path>

        <rect x="39.389" y="2.112" transform="matrix(0.7076 -0.7066 0.7066 0.7076 6.6388 30.2658)" fill="#FFC107" width="1.001" height="9.999"></rect>
        <path fill="#FFC107" d="M8.707,41.122c-0.392,0.392-1.023,0.392-1.414,0l-1.415-1.414c-0.39-0.391-0.39-1.024,0-1.415c0.391-0.391,1.023-0.392,1.415,0l1.414,1.414C9.098,40.099,9.098,40.731,8.707,41.122z"></path>
        <path fill="#FFC107" d="M16.191,25.726c0.195,0.194,0.194,0.511-0.001,0.706l-2.121,2.121c-0.195,0.195-0.511,0.195-0.706,0.001l0,0c-0.195-0.195-0.197-0.512-0.001-0.708l2.121-2.121C15.678,25.529,15.996,25.529,16.191,25.726L16.191,25.726z"></path>
        <path fill="#FFC107" d="M18.313,23.604c0.195,0.195,0.194,0.512-0.001,0.707l-2.121,2.121c-0.195,0.195-0.511,0.194-0.707,0.001l0,0c-0.195-0.195-0.196-0.513-0.001-0.708l2.121-2.121C17.8,23.408,18.117,23.408,18.313,23.604L18.313,23.604z"></path>
        <path fill="#FFC107" d="M20.434,21.482c0.195,0.195,0.194,0.512-0.001,0.707l-2.121,2.121c-0.195,0.195-0.511,0.194-0.706,0l0,0c-0.196-0.195-0.197-0.512-0.001-0.707l2.122-2.121C19.921,21.287,20.238,21.287,20.434,21.482L20.434,21.482z"></path>
    </g>
    <g>
        <path fill="#D3A020" d="M14.444,36.663l1.444-1.444c-0.955-1.681,0.316-3.138,0.616-3.445l-2.914,2.914C13.697,35.332,13.965,35.999,14.444,36.663z"></path>
        <g>
            <path fill="#D3A020" d="M27.892,20.391c-0.806-0.319-1.61-0.458-2.386-0.446c-1.267,1.268-2.457,2.457-3.563,3.563c0.824-0.824,2.48-1.803,4.329-1.5c0.434-0.434,0.874-0.875,1.328-1.328C27.699,20.579,27.793,20.488,27.892,20.391z"></path>
        </g>
    </g>
</svg>