<svg version="1.1" xmlns="http://www.w3.org/2000/svg" xmlns:xlink="http://www.w3.org/1999/xlink" viewBox="0 0 48 48" enable-background="new 0 0 48 48" xml:space="preserve">
    <g>
        <rect x="16" y="8" fill="#C16629" width="17" height="2"></rect>
        <path fill="#C16629" d="M32,44v-2c0-1.104-0.896-2-2-2H19c-1.104,0-2,0.896-2,2v2H32z"></path>
        <circle fill="#C16629" cx="34.5" cy="8.5" r="1.5"></circle>
        <circle fill="#C16629" cx="14.5" cy="8.5" r="1.5"></circle>
    </g>
    <g>
        <rect x="20" y="6" fill="#90A4AE" width="1" height="29.001"></rect>
        <rect x="22" y="6" fill="#90A4AE" width="1" height="29.001"></rect>
        <rect x="24" y="5.999" fill="#90A4AE" width="1" height="29.001"></rect>
        <rect x="26" y="5.999" fill="#90A4AE" width="1" height="29.001"></rect>
        <rect x="28" y="5.999" fill="#90A4AE" width="1" height="29.001"></rect>
    </g>
    <g>
        <path fill="#FF9800" d="M33,44v-1c0-0.553-0.447-1-1-1H17c-0.553,0-1,0.447-1,1v1H33z"></path>
        <path fill="#FF9800" d="M35,5c-1.657,0-3,1.343-3,3s1.343,3,3,3s3-1.343,3-3S36.657,5,35,5z M34.5,10C33.672,10,33,9.327,33,8.5S33.672,7,34.5,7S36,7.673,36,8.5S35.328,10,34.5,10z"></path>
        <path fill="#FF9800" d="M14,5c-1.657,0-3,1.343-3,3s1.343,3,3,3s3-1.343,3-3S15.657,5,14,5z M14.5,10C13.672,10,13,9.327,13,8.5S13.672,7,14.5,7S16,7.673,16,8.5S15.328,10,14.5,10z"></path>
        <path fill="#FF9800" d="M33,10c0-0.316,0.063-0.599,0.146-0.865C33.055,8.941,33,8.728,33,8.5C33,7.673,33.672,7,34.5,7c0.139,0,0.268,0.024,0.395,0.059C34.958,7.022,35,7,35,7V4.999c0,0-4,0.001-4,5C31,15,35,18.001,35,25c0,9-10,9-10,9h-1c0,0-10,0-10-9c0-6.999,4-10,4-15.001c0-4.999-4-5-4-5V7c0,0,0.042,0.022,0.105,0.059C14.232,7.024,14.363,7,14.5,7C15.328,7,16,7.673,16,8.5c0,0.228-0.055,0.441-0.146,0.635C15.938,9.401,16,9.684,16,10c0,2-5,11.001-5,17.001S15,40,24,40h1c9,0,13-6.999,13-12.999S33,12,33,10z"></path>
    </g>
</svg>