<svg version="1.1" xmlns="http://www.w3.org/2000/svg" xmlns:xlink="http://www.w3.org/1999/xlink" viewBox="0 0 48 48" enable-background="new 0 0 48 48" xml:space="preserve">
    <rect x="22.884" y="-0.168" transform="matrix(0.7072 0.707 -0.707 0.7072 24.1606 -11.018)" fill="#455A64" width="4.997" height="47.659"></rect>
    <g>
        <path fill="#FFC107" d="M25.028,30.379c-0.391,0.391-1.023,0.391-1.414,0l0,0c-0.391-0.391-0.391-1.023,0-1.415l15.558-15.556c0.391-0.392,1.023-0.391,1.414,0l0,0c0.391,0.391,0.391,1.024,0,1.414L25.028,30.379z"></path>

        <rect x="10.919" y="27.717" transform="matrix(0.7071 0.7071 -0.7071 0.7071 29.1273 0.9402)" fill="#FFC107" width="5.02" height="15.826"></rect>
        <path fill="#FFC107" d="M35.988,10.934c0.586-0.586,1.537-0.586,2.121,0c0.586,0.585,1.293,2.242,0.709,2.828c-0.586,0.585-2.244-0.122-2.83-0.707C35.404,12.469,35.404,11.519,35.988,10.934z"></path>
        <path fill="#FFC107" d="M32.453,14.469c0.586-0.586,1.535-0.586,2.121,0s1.293,2.243,0.707,2.828c-0.584,0.586-2.242-0.121-2.828-0.707C31.867,16.005,31.867,15.055,32.453,14.469z"></path>
        <path fill="#FFC107" d="M28.918,18.004c0.586-0.585,1.535-0.585,2.121,0c0.586,0.586,1.293,2.243,0.707,2.829c-0.586,0.585-2.242-0.122-2.828-0.707C28.332,19.54,28.332,18.59,28.918,18.004z"></path>
        <path fill="#FFC107" d="M25.382,21.54c0.586-0.586,1.536-0.586,2.121,0c0.587,0.585,1.294,2.242,0.708,2.828s-2.243-0.121-2.829-0.707S24.796,22.125,25.382,21.54z"></path>
        <path fill="#FFC107" d="M21.847,25.075c0.585-0.586,1.535-0.586,2.121,0s1.293,2.243,0.707,2.828c-0.586,0.586-2.243-0.121-2.828-0.707C21.261,26.611,21.261,25.661,21.847,25.075z"></path>
    </g>
    <circle fill="#37474F" cx="10.3" cy="38.743" r="1.501"></circle>
</svg>