<svg version="1.1" xmlns="http://www.w3.org/2000/svg" xmlns:xlink="http://www.w3.org/1999/xlink" viewBox="0 0 48 48" enable-background="new 0 0 48 48" xml:space="preserve">
    <path fill="#5D4037" d="M40,28H8c-1.104,0-2,0.896-2,2v6v4c0,1.104,0.896,2,2,2h32c1.104,0,2-0.896,2-2v-4v-6C42,28.896,41.104,28,40,28z"></path>
    <g>
        <rect x="14" y="30" fill="#FFECB3" width="2" height="9"></rect>
        <rect x="18" y="30" fill="#FFECB3" width="2" height="9"></rect>
        <rect x="22" y="30" fill="#FFECB3" width="2" height="9"></rect>
        <rect x="28" y="30" fill="#FFECB3" width="2" height="9"></rect>
        <rect x="32" y="30" fill="#FFECB3" width="2" height="9"></rect>
        <circle fill="#FFECB3" cx="10" cy="31" r="1"></circle>
        <circle fill="#FFECB3" cx="10" cy="35" r="1"></circle>
        <circle fill="#FFECB3" cx="10" cy="39" r="1"></circle>
        <circle fill="#FFECB3" cx="38" cy="31" r="1"></circle>
        <circle fill="#FFECB3" cx="38" cy="35" r="1"></circle>
        <circle fill="#FFECB3" cx="38" cy="39" r="1"></circle>
    </g>
    <g>
        <polygon fill="#FFC107" points="10,28 8,28 7,22.002 7,8 11,8 11,22.002 	"></polygon>
        <polygon fill="#FFC107" points="16,28 14,28 13,22.002 13,8 17,8 17,22.002 	"></polygon>
        <polygon fill="#FFC107" points="22,28 20,28 19,22.002 19,8 23,8 23,22.002 	"></polygon>
        <polygon fill="#FFC107" points="28,28 26,28 25,22.002 25,8 29,8 29,22.002 	"></polygon>
        <polygon fill="#FFC107" points="34,28 32,28 31,22.002 31,8 35,8 35,22.002 	"></polygon>
        <polygon fill="#FFC107" points="40,28 38,28 37,22.002 37,8 41,8 41,22.002 	"></polygon>
    </g>
    <g>
        <rect x="7" y="20" fill="#AF8023" width="4" height="2"></rect>
        <rect x="13" y="20" fill="#AF8023" width="4" height="2"></rect>
        <rect x="19" y="20" fill="#AF8023" width="4" height="2"></rect>
        <rect x="25" y="20" fill="#AF8023" width="4" height="2"></rect>
        <rect x="31" y="20" fill="#AF8023" width="4" height="2"></rect>
        <rect x="37" y="20" fill="#AF8023" width="4" height="2"></rect>
        <ellipse fill="#AF8023" cx="9" cy="8" rx="2" ry="1"></ellipse>
        <ellipse fill="#AF8023" cx="15" cy="8" rx="2" ry="1"></ellipse>
        <ellipse fill="#AF8023" cx="21" cy="8" rx="2" ry="1"></ellipse>
        <ellipse fill="#AF8023" cx="27" cy="8" rx="2" ry="1"></ellipse>
        <ellipse fill="#AF8023" cx="33" cy="8" rx="2" ry="1"></ellipse>
        <ellipse fill="#AF8023" cx="39" cy="8" rx="2" ry="1"></ellipse>
    </g>
</svg>