<svg version="1.1" xmlns="http://www.w3.org/2000/svg" xmlns:xlink="http://www.w3.org/1999/xlink" viewBox="0 0 48 48" enable-background="new 0 0 48 48" xml:space="preserve">
    <g>
        <path fill="#FFC107" d="M30.025,18.608c0.002,0,0.002,0,0.004,0C30.027,18.607,30.025,18.608,30.025,18.608z"></path>
        <path fill="#FFC107" d="M41.042,34.069c0,0-1.895-3.47-2.075-3.928c-0.139-0.35-2.311-3.986-1.754-7.166c0.093-0.526-0.057-2.227,2.093-2.508l0.123-1.03c-8.059-0.669-7.909-0.698-9.399-0.829c0.009,0.006,0.03,0.096-0.053,1.051c2.253,0.944,1.854,1.79,1.887,2.713c-0.411,2.551,0.524,5.207,1.744,7.587l2.969,5.047c0.041,0.069,0.077,0.128,0.107,0.182l0.179,0.305c0.28,0.476,0.121,1.089-0.354,1.369c-0.16,0.094-0.334,0.138-0.506,0.138c-0.344,0-0.678-0.176-0.863-0.493l-0.156-0.267c-0.029-0.026-0.037-0.051-0.037-0.051l-9.748-16.582l-0.059-0.101l0,0L19.248,9.484c-2.551-4.573-5.238-3.428-6.643-3.165c-0.243,0.045-1.043,0.223-1.986,0.435c0,0-0.897,1.375,0.512,2.409c0.723-0.104,1.39-0.201,1.849-0.28c1.646-0.279,2.267,1.02,2.646,1.714s14.59,26.807,15.285,28.007s4,5.024,8.557,2.615S41.042,34.069,41.042,34.069z"></path>
    </g>
    <path fill="#455A64" d="M10.619,6.754c-1.815,0.409-4.168,0.95-4.168,0.95S5.846,8.16,6.039,8.896c0.193,0.737,0.88,0.831,0.88,0.831s2.306-0.295,4.212-0.564C9.722,8.129,10.619,6.755,10.619,6.754z"></path>
    <g>
        <path fill="#BB8920" d="M34.355,29.458c-0.533-0.633-0.452-1.583,0.182-2.117c0.633-0.531,1.579-0.451,2.112,0.182c0.534,0.637,0.452,1.582-0.181,2.115C35.835,30.171,34.889,30.093,34.355,29.458z"></path>
        <path fill="#BB8920" d="M27.662,27.356c-0.532-0.633-0.451-1.583,0.184-2.116c0.633-0.532,1.578-0.452,2.111,0.182c0.533,0.636,0.453,1.581-0.182,2.114C29.143,28.07,28.195,27.992,27.662,27.356z"></path>
        <path fill="#BB8920" d="M29.972,31.422c-0.533-0.633-0.452-1.583,0.183-2.116c0.633-0.531,1.578-0.451,2.111,0.182c0.533,0.636,0.453,1.581-0.182,2.114C31.451,32.136,30.504,32.058,29.972,31.422z"></path>
        <path fill="#BB8920" d="M32.48,35.462c-0.533-0.633-0.451-1.583,0.184-2.117c0.632-0.531,1.578-0.451,2.111,0.183c0.533,0.636,0.453,1.581-0.182,2.114C33.961,36.175,33.014,36.097,32.48,35.462z"></path>
        <path fill="#BB8920" d="M36.355,33.46c-0.535-0.634-0.453-1.582,0.18-2.116c0.634-0.53,1.579-0.453,2.113,0.182s0.453,1.583-0.18,2.116C37.834,34.175,36.889,34.096,36.355,33.46z"></path>
        <circle fill="#BB8920" cx="39.001" cy="35.997" r="1.001"></circle>
        <path fill="#BB8920" d="M20.951,14.622c-0.355-0.423-0.302-1.052,0.12-1.41c0.425-0.355,1.056-0.299,1.41,0.123c0.354,0.419,0.3,1.054-0.121,1.408C21.938,15.102,21.308,15.047,20.951,14.622z"></path>
        <path fill="#BB8920" d="M22.68,17.624c-0.355-0.422-0.302-1.051,0.12-1.408c0.425-0.356,1.056-0.3,1.409,0.123c0.355,0.418,0.301,1.053-0.121,1.408C23.666,18.104,23.036,18.05,22.68,17.624z"></path>
        <path fill="#BB8920" d="M24.475,20.685c-0.355-0.422-0.301-1.052,0.121-1.409c0.424-0.356,1.055-0.3,1.409,0.123c0.354,0.418,0.3,1.054-0.121,1.408C25.462,21.164,24.831,21.109,24.475,20.685z"></path>
        <path fill="#BB8920" d="M26.203,23.587c-0.355-0.422-0.302-1.052,0.12-1.409c0.425-0.356,1.056-0.3,1.409,0.123c0.355,0.418,0.301,1.054-0.121,1.408C27.189,24.066,26.561,24.012,26.203,23.587z"></path>
    </g>
</svg>