<svg version="1.1" xmlns="http://www.w3.org/2000/svg" xmlns:xlink="http://www.w3.org/1999/xlink" viewBox="0 0 48 48" enable-background="new 0 0 48 48" xml:space="preserve">
    <path fill="#FFC107" d="M23,29.375c-6.481,0-14-1.541-17-5.5V30l0.154,1c1.103,3.945,7.614,7,16.846,7s15.743-3.055,16.846-7L40,30v-6.125C37.275,26.868,31.417,29.375,23,29.375z"></path>
    <path fill="#455A64" d="M41,18.375c0,4.418-8,8-18,8s-18-3.582-18-8s8.059-8,18-8S41,13.957,41,18.375z"></path>
    <path fill="#ECEFF1" d="M40,20.875c0,4.142-7.555,7.5-17,7.5s-17-3.358-17-7.5s7.611-7.5,17-7.5S40,16.733,40,20.875z"></path>
    <g>
        <g>
            <path fill="#6C858E" d="M23,26.375c-10,0-18-3.582-18-8c0,0,0,1.108,0,1.997c0,0.313,0,0.595,0,0.795c0,0.085,0,0.158,0,0.208c0,0.5,0.154,1,0.154,1c1.103,3.945,8.614,7,17.846,7s16.743-3.055,17.846-7c0,0,0.154-0.5,0.154-1c0-0.05,0-0.123,0-0.208c0-0.2,0-0.482,0-0.795c0-0.889,0-1.997,0-1.997C41,22.793,33,26.375,23,26.375z"></path>
        </g>
        <g>
            <path fill="#6C858E" d="M40,28.375V30l-0.154,1c-0.928,3.321-7.533,7-16.846,7S7.082,34.321,6.154,31L6,30v-1.625C5.5,28.75,5,29.5,5,30c0,0,0,2.438,0,3s0.154,1,0.154,1c1.103,3.945,8.614,7,17.846,7s16.743-3.055,17.846-7c0,0,0.154-0.417,0.154-1s0-3,0-3C41,29.5,40.5,28.75,40,28.375z"></path>
        </g>
    </g>
    <g>
        <rect x="22" y="28.375" fill="#455A64" width="2" height="12.625"></rect>
        <polygon fill="#455A64" points="36,38 34,39 34,27.375 36,26.375"></polygon>
        <polygon fill="#455A64" points="12,39 10,38 10,26.375 12,27.375"></polygon>
        <path fill="#455A64" d="M25,29.317c0,0.553-1,1.058-1,1.058h-2c0,0-1-0.481-1-1.034v-2.966c0.797,0.059,3.563,0.059,4,0V29.317z"></path>
        <path fill="#455A64" d="M21.108,37.952C21.108,37.399,22,37,22,37h2c0,0,1,0.399,1,0.952v2.999c-0.469,0.049-3.266,0.07-4,0L21.108,37.952z"></path>
        <path fill="#455A64" d="M37,26.731c0,0.553-1,1.644-1,1.644l-2,1c0,0-1-0.665-1-1.218v-3.116c0.469-0.166,3-0.979,4-1.646V26.731z"></path>
        <path fill="#455A64" d="M9,26.731c0,0.553,1,1.644,1,1.644l2,1c0,0,1-0.665,1-1.218v-3.116c-0.469-0.166-3-0.979-4-1.646V26.731z"></path>
        <path fill="#455A64" d="M33,36.533C33,35.98,34,35,34,35l2-1c0,0,1,0.417,1,0.624v3.407c-0.469,0.313-3,1.438-4,1.627V36.533z"></path>
        <path fill="#455A64" d="M13,36.533C13,35.98,12,35,12,35l-2-1c0,0-1,0.417-1,0.624v3.407c0.469,0.313,3,1.438,4,1.627V36.533z"></path>
    </g>
    <g>

        <line fill="none" stroke="#A1887F" stroke-width="2" stroke-linecap="round" stroke-linejoin="round" x1="37" y1="7" x2="19" y2="18.375"></line>
        <line fill="none" stroke="#A1887F" stroke-width="2" stroke-linecap="round" stroke-linejoin="round" x1="42" y1="14.375" x2="20" y2="21.375"></line>
    </g>
</svg>