<svg version="1.1" xmlns="http://www.w3.org/2000/svg" xmlns:xlink="http://www.w3.org/1999/xlink" viewBox="0 0 48 48" enable-background="new 0 0 48 48" xml:space="preserve">
    <path fill="#FFC107" d="M8.992,13.001l3,9.999c2,7.001,6.28,9.002,12,9.001l0,0c6.28,0,11-2,12-9.001l3-9.999H8.992z"></path>
    <g>
        <ellipse fill="#4E342E" cx="23.992" cy="36.5" rx="7" ry="1.5"></ellipse>
        <g>
            <path fill="#FFE0B2" d="M23.992,16.5c-9.271,0-15.5-2.326-15.5-4.499c0-2.174,6.229-4.501,15.5-4.501c9.272,0,15.5,2.327,15.5,4.501C39.492,14.174,33.264,16.5,23.992,16.5z"></path>
            <path fill="#4E342E" d="M23.992,8c9.293,0,15,2.33,15,4.001c0,1.67-5.707,3.999-15,3.999s-15-2.329-15-3.999C8.992,10.33,14.698,8,23.992,8 M23.992,7c-8.972,0-16,2.196-16,5.001c0,2.803,7.028,4.999,16,4.999c8.972,0,16-2.196,16-4.999C39.992,9.196,32.964,7,23.992,7L23.992,7z"></path>
        </g>
    </g>
    <g>
        <path fill="#5D4037" d="M31.992,40.001c0,0.999-4,1.999-8,1.999s-8-0.998-8-1.999s1-4,1-4s1,1.999,7,1.999s7-1.999,7-1.999S31.992,39.002,31.992,40.001z"></path>
        <g>
            <path fill="#6D4C41" d="M39.992,12.001c0,2.803-7.028,4.999-16,4.999c-8.968,0-15.994-2.195-16-4.996l1,3.997c3.394,3.094,8.925,3.999,15,3.999c6.075,0,12.516-1.343,15-3.999L39.992,12.001z"></path>
        </g>
    </g>
    <g>
        <path fill="none" stroke="#8D6E63" stroke-width="2" stroke-linecap="round" d="M31.728,18.001c0,0,2,9-5,20"></path>
        <path fill="none" stroke="#8D6E63" stroke-width="2" stroke-linecap="round" d="M38.992,16.001c3,0-1,14-8,21"></path>
        <path fill="none" stroke="#8D6E63" stroke-width="2" stroke-linecap="round" d="M16.257,18.001c0,0-2,9,5,20"></path>
        <path fill="none" stroke="#8D6E63" stroke-width="2" stroke-linecap="round" d="M9,16.001c-3,0,1,14,8,21"></path>
    </g>
</svg>