<svg version="1.1" xmlns="http://www.w3.org/2000/svg" xmlns:xlink="http://www.w3.org/1999/xlink" viewBox="0 0 48 48" enable-background="new 0 0 48 48" xml:space="preserve">
    <g>

        <rect x="10" y="27.315" transform="matrix(0.7071 -0.7071 0.7071 0.7071 -19.3852 17.1423)" fill="#D3A020" width="2" height="9.313"></rect>
        <polyline fill="#D3A020" points="23.551,23.65 30.136,30.236 28.722,31.65 22.136,25.065 	"></polyline>
        <polyline fill="#D3A020" points="28.051,19.15 34.636,25.736 33.222,27.15 26.636,20.565 	"></polyline>
        <polyline fill="#D3A020" points="12.415,23.971 19,30.557 17.586,31.971 11,25.386 	"></polyline>
        <circle fill="#D3A020" cx="11" cy="31.971" r="2"></circle>
    </g>
    <g>
        <path fill="#FFC107" d="M26.764,16.015c0,0-2.063-2.049-14.11,9.946c-2.656,2.645-5.8,5.905-5.8,5.905L5.43,30.463c0,0,4.253-4.359,5.806-5.913c12.018-12.025,9.854-14.173,9.854-14.173L26.764,16.015z"></path>
        <rect x="23.826" y="7.889" transform="matrix(0.7076 -0.7066 0.7066 0.7076 -1.9941 20.9584)" fill="#FFC107" width="1.001" height="9.999"></rect>
        <path fill="#FFC107" d="M25.121,37.706c-0.392,0.392-1.023,0.392-1.414,0l-1.414-1.414c-0.391-0.391-0.391-1.024,0-1.415s1.022-0.392,1.414,0l1.414,1.414C25.513,36.683,25.512,37.315,25.121,37.706z"></path>
        <path fill="#FFC107" d="M38.958,19.439c-11.9,11.9-15.712,15.952-15.712,15.952l1.414,1.414c0,0,3.781-4.021,15.681-15.921L38.958,19.439z"></path>
        <path fill="#FFC107" d="M34.16,15.672l2.758-2.757c0.359-0.351,2.25-2,4.246-0.004c1.994,1.993,0.352,3.884-0.002,4.245l-2.829,2.91l1.445,1.383l2.8-2.881c1.223-1.224,2.797-4.274,0-7.071s-5.848-1.223-7.07,0l-2.762,2.761L34.16,15.672z"></path>
        <path fill="#FFC107" d="M33.144,13.877L11.186,36.021c-0.359,0.351-2.25,2-4.247,0.004c-1.996-1.996-0.347-3.888,0-4.243l5.36-5.545L11,24.764l-5.476,5.604c-1.224,1.224-2.796,4.274,0,7.071c2.797,2.797,5.849,1.223,7.071,0l21.962-22.147L33.144,13.877z"></path>
    </g>
</svg>