<svg version="1.1" xmlns="http://www.w3.org/2000/svg" xmlns:xlink="http://www.w3.org/1999/xlink" viewBox="0 0 48 48" enable-background="new 0 0 48 48" xml:space="preserve">
    <g>
        <rect x="24.086" y="21.586" transform="matrix(0.7069 -0.7074 0.7074 0.7069 -13.1247 26.2311)" fill="#AF8023" width="2" height="14.729"></rect>
        <rect x="22.086" y="23.586" transform="matrix(0.7069 -0.7074 0.7074 0.7069 -15.1256 25.4027)" fill="#AF8023" width="2" height="14.729"></rect>
        <rect x="26.086" y="19.585" transform="matrix(0.7069 -0.7074 0.7074 0.7069 -11.123 27.0592)" fill="#AF8023" width="2" height="14.729"></rect>
    </g>
    <g>
        <path fill="#FFC107" d="M35.363,18.157c-2.797-2.797-5.848-1.223-7.07,0L14.164,32.286c-1.224,1.224-2.796,4.274,0,7.071c2.797,2.797,5.849,1.223,7.071,0l3.946-3.946l-1.414-1.414l-3.942,3.942c-0.359,0.351-2.25,2-4.247,0.004c-1.996-1.996-0.347-3.888,0-4.243l14.125-14.125c0.359-0.351,2.25-2,4.246-0.004c1.994,1.993,0.352,3.884-0.002,4.245l-3.815,3.816l1.414,1.414l3.817-3.818C36.586,24.005,38.16,20.954,35.363,18.157z"></path>
        <path fill="#FFC107" d="M9.121,41.706c-0.392,0.392-1.023,0.392-1.414,0l-1.414-1.414c-0.391-0.391-0.391-1.024,0-1.415s1.022-0.392,1.414,0l1.414,1.414C9.513,40.683,9.512,41.315,9.121,41.706z"></path>
        <path fill="#FFC107" d="M24.262,33.541l-1.97,1.97c-0.38,0.377-1.036,0.379-1.414-0.001c-0.189-0.188-0.293-0.438-0.293-0.706c0-0.267,0.104-0.518,0.293-0.707l1.97-1.97l-1.414-1.414l-1.97,1.97c-0.566,0.566-0.879,1.32-0.879,2.121c0,0.802,0.313,1.556,0.878,2.121c0.566,0.566,1.32,0.879,2.122,0.879c0.801,0,1.555-0.313,2.121-0.879l1.97-1.97L24.262,33.541z"></path>
        <path fill="#FFC107" d="M28.24,26.69l1.886-1.886c0.189-0.188,0.44-0.293,0.707-0.293c0.268,0,0.518,0.104,0.707,0.294c0.189,0.188,0.293,0.438,0.293,0.706c0,0.267-0.104,0.518-0.293,0.707l-1.886,1.887l1.414,1.414l1.886-1.887c0.566-0.566,0.879-1.32,0.879-2.121c0-0.802-0.313-1.556-0.878-2.121c-1.132-1.132-3.109-1.134-4.243,0l-1.886,1.886L28.24,26.69z"></path>
        <line fill="#AF8023" x1="21.293" y1="22.329" x2="22.707" y2="20.916"></line>
        <path fill="#FFC107" d="M18.818,24.099c0.194,0.194,0.193,0.511-0.002,0.706l-2.121,2.121c-0.195,0.195-0.51,0.195-0.705,0.001l0,0c-0.195-0.195-0.197-0.512-0.002-0.708l2.121-2.121C18.305,23.902,18.623,23.902,18.818,24.099L18.818,24.099z"></path>
        <path fill="#FFC107" d="M20.939,21.977c0.195,0.195,0.194,0.512-0.001,0.707l-2.121,2.121c-0.195,0.195-0.511,0.194-0.706,0.001l0,0c-0.195-0.195-0.197-0.513-0.002-0.708l2.121-2.121C20.427,21.781,20.744,21.781,20.939,21.977L20.939,21.977z"></path>
        <path fill="#FFC107" d="M23.061,19.855c0.195,0.195,0.194,0.512-0.001,0.707l-2.121,2.121c-0.195,0.195-0.511,0.194-0.706,0l0,0c-0.195-0.195-0.197-0.512-0.002-0.707l2.122-2.121C22.548,19.66,22.865,19.66,23.061,19.855L23.061,19.855z"></path>
        <path fill="#FFC107" d="M41.586,11.936c0,0-2.121-2.121-14.143,9.9C15.423,33.856,8.473,40.806,8.473,40.806l-1.414-1.414c0,0,6.949-6.949,18.971-18.971C38.051,8.4,35.929,6.279,35.929,6.279L41.586,11.936z"></path>

        <rect x="38.611" y="3.754" transform="matrix(0.7076 -0.7066 0.7066 0.7076 5.2505 30.1961)" fill="#FFC107" width="1.001" height="9.999"></rect>
    </g>
    <g>
        <path fill="#D3A020" d="M31.928,14.596c-0.176,0-0.337,0.024-0.505,0.037c0,0-1.507,1.829-3.267,3.612c0,0,1.547-1.739,3.771-1.649c0.321,0.013,0.651,0.041,0.986,0.12c0.635-0.545,1.229-1.038,1.777-1.472C33.815,14.821,32.887,14.596,31.928,14.596L31.928,14.596z"></path>
        <path fill="#D3A020" d="M14.962,37.145c-0.944-1.663,0.29-3.106,0.605-3.434c-1.102,1.102-2.071,2.072-2.903,2.903c0.105,0.645,0.374,1.312,0.854,1.976L14.962,37.145z"></path>
    </g>
</svg>