<svg version="1.1" xmlns="http://www.w3.org/2000/svg" xmlns:xlink="http://www.w3.org/1999/xlink" viewBox="0 0 48 48" enable-background="new 0 0 48 48" xml:space="preserve">
    <g>
        <path fill="#FFC107" d="M18,5c6,0,6,10,6,10c0,0.709,0,17,0,19s0,5-5,5s-5-3-5-5s0-11,0-11s-0.417-7,4-7v-2l0,0c0,0-6-1-7,7c-0.877,7.017-1,12-1,12c0,10,5,11,10,11s8.928-0.56,10-11c1.584-20.083,2-28,8-28H18z"></path>
        <rect x="18" y="4" fill="#FFC107" width="20" height="1"></rect>
        <path fill="#FFC107" d="M35,24c-0.553,0-1-0.447-1-1v-2c0-0.553,0.447-1,1-1s1,0.447,1,1v2C36,23.553,35.553,24,35,24z"></path>
        <path fill="none" stroke="#FFC107" stroke-width="2" d="M17,15h1c0,0,3,0,3,3s0,16,0,16s0,2-2,2s-2-2-2-2v-9c0,0,0-3,3-3c2,0,0,0,15,0"></path>
    </g>
    <g>
        <path fill="#D3A020" d="M24,21.001h7.014c0.068-0.688,0.138-1.356,0.209-2H24C24,19.622,24,20.297,24,21.001z"></path>
        <path fill="#D3A020" d="M30.825,23.001H24c0,0.657,0,1.326,0,2h6.65C30.709,24.316,30.767,23.65,30.825,23.001z"></path>
    </g>
</svg>