<svg version="1.1" xmlns="http://www.w3.org/2000/svg" xmlns:xlink="http://www.w3.org/1999/xlink" viewBox="0 0 48 48" enable-background="new 0 0 48 48" xml:space="preserve">
    <path fill="#FF9800" d="M32.077,18.696l-1.411-1.415l-1.41-1.412c-2.337-2.342-6.349-2.121-8.464,0c-2.117,2.121-2.823,2.827-2.823,2.827s2.117,0.707,1.08,2.452c-0.544,0.915-2.592,3.007-4.255,3.085c-2.468,0.117-2.468-1.298-2.468-1.298s-3.527,2.121-5.644,4.241c-2.115,2.122-2.823,5.657,1.41,9.897l1.411,1.413l1.411,1.413c4.231,4.242,7.76,3.533,9.877,1.414c2.115-2.12,4.144-5.743,4.144-5.743s-1.322,0.088-1.207-2.385c0.079-1.667,2.167-3.718,3.078-4.263c1.744-1.039,2.449,1.082,2.449,1.082s0.706-0.707,2.821-2.829C34.193,25.057,34.415,21.038,32.077,18.696z"></path>
    <g>
        <path fill="#3E2723" d="M14.09,28.239l3.879-3.889c0.195-0.195,0.549,0.865,0.353,1.06l-3.879,3.889C14.249,29.494,13.895,28.433,14.09,28.239z"></path>
        <circle fill="#3E2723" cx="13.737" cy="28.592" r="0.999"></circle>
        <circle fill="#3E2723" cx="18.674" cy="25.057" r="0.999"></circle>
        <path fill="#3E2723" d="M19.733,33.893l3.879-3.887c0.195-0.195-0.863-0.549-1.058-0.354l-3.88,3.888C18.479,33.733,19.538,34.088,19.733,33.893z"></path>
        <circle fill="#3E2723" cx="19.38" cy="34.246" r="0.999"></circle>
        <circle fill="#3E2723" cx="22.907" cy="29.299" r="0.999"></circle>
    </g>
    <g>
        <path fill="#5D4037" d="M39.575,12.053c-0.197,0.196-0.517,0.196-0.715,0l-1.431-1.418c-0.197-0.196-0.197-0.514,0-0.71l0,0c0.198-0.196,0.518-0.196,0.716,0l1.43,1.419C39.773,11.539,39.773,11.857,39.575,12.053L39.575,12.053z"></path>
        <path fill="#5D4037" d="M38.146,13.473c-0.198,0.196-0.518,0.196-0.716,0L36,12.053c-0.197-0.195-0.197-0.514,0-0.709l0,0c0.197-0.196,0.518-0.196,0.715,0l1.431,1.418C38.343,12.959,38.343,13.275,38.146,13.473L38.146,13.473z"></path>
        <path fill="#5D4037" d="M36.493,10.414c-0.197,0.195-0.518,0.195-0.715,0l-1.431-1.419c-0.197-0.196-0.197-0.514,0-0.709l0,0c0.198-0.196,0.518-0.196,0.716,0l1.43,1.418C36.691,9.9,36.691,10.218,36.493,10.414L36.493,10.414z"></path>
        <path fill="#5D4037" d="M35.063,11.832c-0.198,0.196-0.518,0.196-0.716,0l-1.43-1.418c-0.197-0.196-0.197-0.514,0-0.71l0,0c0.197-0.195,0.518-0.195,0.715,0l1.431,1.419C35.261,11.319,35.261,11.637,35.063,11.832L35.063,11.832z"></path>
        <path fill="#5D4037" d="M15.147,35.659C14.794,35.306,15.147,35.659,15.147,35.659l0.706-0.706l-2.821-2.828l-0.706,0.708c0.706,0.706-3.51,4.985-3.51,4.985l1.418,1.407C10.234,39.226,14.441,34.953,15.147,35.659z"></path>
        <polygon fill="#5D4037" points="38.253,7.193 21.501,23.646 24.322,26.475 39.855,8.783 	"></polygon>
    </g>
    <g>
        <path fill="#C16629" d="M40.729,9.77c-0.618,0.615-1.657,0.625-2.285,0L37.3,8.638c-0.629-0.624-0.62-1.651,0-2.269c0.622-0.615,1.874,0.412,3.556-1.262L42,6.241C40.363,7.869,41.346,9.158,40.729,9.77z"></path>
        <polygon fill="#C16629" points="38.252,7.192 33.176,12.115 35.178,14.119 39.855,8.783 	"></polygon>
    </g>
    <path fill="#795548" d="M7.464,36.402c0.277-0.246,0.632-0.656,0.951-0.972c2.146-2.131,2.107-5.625-0.09-7.804c-0.361-0.359-0.768-0.641-1.189-0.884c-0.156,0.144-0.309,0.289-0.453,0.434C4.681,29.186,3.946,32.461,7.464,36.402z"></path>
</svg>